<mxfile host="app.diagrams.net" agent="Mozilla/5.0 (Windows NT 10.0; Win64; x64) AppleWebKit/537.36 (KHTML, like Gecko) Chrome/133.0.0.0 Safari/537.36" version="26.0.14">
  <diagram id="R2lEEEUBdFMjLlhIrx00" name="Page-1">
    <mxGraphModel dx="3967" dy="3318" grid="0" gridSize="10" guides="1" tooltips="1" connect="1" arrows="1" fold="1" page="1" pageScale="1" pageWidth="1654" pageHeight="1169" background="none" math="0" shadow="0" extFonts="Permanent Marker^https://fonts.googleapis.com/css?family=Permanent+Marker">
      <root>
        <mxCell id="0" />
        <mxCell id="1" parent="0" />
        <mxCell id="rQkRtYJSGVrKPp-QHFrH-78" value="Customer" style="rounded=0;whiteSpace=wrap;html=1;fontFamily=gadugi;fillColor=#ffe6cc;strokeColor=light-dark(#fe3496, #996500);fontSize=23;fontStyle=1" parent="1" vertex="1">
          <mxGeometry x="-842" y="-1606" width="180" height="83" as="geometry" />
        </mxCell>
        <mxCell id="rQkRtYJSGVrKPp-QHFrH-79" style="edgeStyle=orthogonalEdgeStyle;rounded=0;orthogonalLoop=1;jettySize=auto;html=1;exitX=0.5;exitY=1;exitDx=0;exitDy=0;" parent="1" source="rQkRtYJSGVrKPp-QHFrH-78" target="rQkRtYJSGVrKPp-QHFrH-78" edge="1">
          <mxGeometry relative="1" as="geometry" />
        </mxCell>
        <mxCell id="rQkRtYJSGVrKPp-QHFrH-81" value="&lt;u&gt;Customer_ID&lt;/u&gt;" style="ellipse;whiteSpace=wrap;html=1;fontStyle=1;fillColor=#d0cee2;strokeColor=#56517e;fontSize=20;" parent="1" vertex="1">
          <mxGeometry x="-1067" y="-1696.34" width="190" height="47" as="geometry" />
        </mxCell>
        <mxCell id="hbZG4sB_QH7EyhRolY79-29" style="edgeStyle=orthogonalEdgeStyle;rounded=0;orthogonalLoop=1;jettySize=auto;html=1;exitX=0.5;exitY=1;exitDx=0;exitDy=0;entryX=0.75;entryY=0;entryDx=0;entryDy=0;" parent="1" source="rQkRtYJSGVrKPp-QHFrH-83" target="rQkRtYJSGVrKPp-QHFrH-78" edge="1">
          <mxGeometry relative="1" as="geometry" />
        </mxCell>
        <mxCell id="rQkRtYJSGVrKPp-QHFrH-83" value="Customer_Name" style="ellipse;whiteSpace=wrap;html=1;fontStyle=1;fillColor=#d0cee2;strokeColor=#56517e;fontSize=20;" parent="1" vertex="1">
          <mxGeometry x="-538" y="-1689.34" width="180" height="40" as="geometry" />
        </mxCell>
        <mxCell id="rQkRtYJSGVrKPp-QHFrH-84" value="Customer_Phone" style="ellipse;whiteSpace=wrap;html=1;fontStyle=1;fillColor=#d0cee2;strokeColor=#56517e;fontSize=20;" parent="1" vertex="1">
          <mxGeometry x="-962" y="-1758.5" width="200" height="50" as="geometry" />
        </mxCell>
        <mxCell id="rQkRtYJSGVrKPp-QHFrH-88" style="edgeStyle=orthogonalEdgeStyle;rounded=0;orthogonalLoop=1;jettySize=auto;html=1;exitX=0.5;exitY=1;exitDx=0;exitDy=0;" parent="1" source="rQkRtYJSGVrKPp-QHFrH-84" edge="1">
          <mxGeometry relative="1" as="geometry">
            <mxPoint x="-732" y="-1599" as="targetPoint" />
          </mxGeometry>
        </mxCell>
        <mxCell id="rQkRtYJSGVrKPp-QHFrH-106" value="IS_A_USER" style="rhombus;whiteSpace=wrap;html=1;fillColor=#fff2cc;strokeColor=#d6b656;gradientColor=#ffd966;fontStyle=1;fontSize=18;fontFamily=gadugi;" parent="1" vertex="1">
          <mxGeometry x="-422" y="-1637.5" width="140" height="160" as="geometry" />
        </mxCell>
        <mxCell id="rQkRtYJSGVrKPp-QHFrH-108" style="edgeStyle=orthogonalEdgeStyle;rounded=0;orthogonalLoop=1;jettySize=auto;html=1;exitX=0.5;exitY=1;exitDx=0;exitDy=0;" parent="1" source="rQkRtYJSGVrKPp-QHFrH-107" target="rQkRtYJSGVrKPp-QHFrH-107" edge="1">
          <mxGeometry relative="1" as="geometry" />
        </mxCell>
        <mxCell id="hbZG4sB_QH7EyhRolY79-27" style="edgeStyle=orthogonalEdgeStyle;rounded=0;orthogonalLoop=1;jettySize=auto;html=1;exitX=0.5;exitY=1;exitDx=0;exitDy=0;entryX=0.25;entryY=0;entryDx=0;entryDy=0;" parent="1" source="rQkRtYJSGVrKPp-QHFrH-110" target="rQkRtYJSGVrKPp-QHFrH-107" edge="1">
          <mxGeometry relative="1" as="geometry" />
        </mxCell>
        <mxCell id="rQkRtYJSGVrKPp-QHFrH-110" value="&lt;u&gt;User_ID&lt;/u&gt;" style="ellipse;whiteSpace=wrap;html=1;fontStyle=1;fillColor=#d0cee2;strokeColor=#56517e;fontSize=20;" parent="1" vertex="1">
          <mxGeometry x="-242" y="-1689" width="190" height="50" as="geometry" />
        </mxCell>
        <mxCell id="rQkRtYJSGVrKPp-QHFrH-112" value="Password" style="ellipse;whiteSpace=wrap;html=1;fontStyle=1;fillColor=#d0cee2;strokeColor=#56517e;fontSize=20;" parent="1" vertex="1">
          <mxGeometry x="248" y="-1676" width="160" height="50" as="geometry" />
        </mxCell>
        <mxCell id="rQkRtYJSGVrKPp-QHFrH-113" value="User_Type" style="ellipse;whiteSpace=wrap;html=1;fontStyle=1;fillColor=#d0cee2;strokeColor=#56517e;fontSize=20;" parent="1" vertex="1">
          <mxGeometry x="118" y="-1738.75" width="190" height="50" as="geometry" />
        </mxCell>
        <mxCell id="rQkRtYJSGVrKPp-QHFrH-114" value="Email" style="ellipse;whiteSpace=wrap;html=1;fontStyle=1;fillColor=#d0cee2;strokeColor=#56517e;fontSize=20;" parent="1" vertex="1">
          <mxGeometry x="-82" y="-1738.75" width="190" height="50" as="geometry" />
        </mxCell>
        <mxCell id="rQkRtYJSGVrKPp-QHFrH-117" style="edgeStyle=orthogonalEdgeStyle;rounded=0;orthogonalLoop=1;jettySize=auto;html=1;exitX=0.5;exitY=1;exitDx=0;exitDy=0;entryX=0.69;entryY=-0.024;entryDx=0;entryDy=0;entryPerimeter=0;" parent="1" source="rQkRtYJSGVrKPp-QHFrH-113" target="rQkRtYJSGVrKPp-QHFrH-107" edge="1">
          <mxGeometry relative="1" as="geometry">
            <mxPoint x="138" y="-1570.75" as="targetPoint" />
          </mxGeometry>
        </mxCell>
        <mxCell id="rQkRtYJSGVrKPp-QHFrH-118" style="edgeStyle=orthogonalEdgeStyle;rounded=0;orthogonalLoop=1;jettySize=auto;html=1;exitX=0.5;exitY=1;exitDx=0;exitDy=0;entryX=0.365;entryY=-0.01;entryDx=0;entryDy=0;entryPerimeter=0;" parent="1" source="rQkRtYJSGVrKPp-QHFrH-114" target="rQkRtYJSGVrKPp-QHFrH-107" edge="1">
          <mxGeometry relative="1" as="geometry" />
        </mxCell>
        <mxCell id="rQkRtYJSGVrKPp-QHFrH-122" value="Cart_Item" style="rounded=0;whiteSpace=wrap;html=1;fontFamily=gadugi;fillColor=#ffe6cc;strokeColor=light-dark(#fe3496, #996500);fontStyle=1;fontSize=23;" parent="1" vertex="1">
          <mxGeometry x="944" y="519.5" width="200" height="90.5" as="geometry" />
        </mxCell>
        <mxCell id="rQkRtYJSGVrKPp-QHFrH-123" style="edgeStyle=orthogonalEdgeStyle;rounded=0;orthogonalLoop=1;jettySize=auto;html=1;exitX=0.5;exitY=1;exitDx=0;exitDy=0;" parent="1" source="rQkRtYJSGVrKPp-QHFrH-122" target="rQkRtYJSGVrKPp-QHFrH-122" edge="1">
          <mxGeometry relative="1" as="geometry" />
        </mxCell>
        <mxCell id="hbZG4sB_QH7EyhRolY79-191" style="edgeStyle=orthogonalEdgeStyle;rounded=0;orthogonalLoop=1;jettySize=auto;html=1;exitX=0.5;exitY=1;exitDx=0;exitDy=0;entryX=0.25;entryY=0;entryDx=0;entryDy=0;" parent="1" source="rQkRtYJSGVrKPp-QHFrH-125" target="rQkRtYJSGVrKPp-QHFrH-122" edge="1">
          <mxGeometry relative="1" as="geometry">
            <Array as="points">
              <mxPoint x="994" y="401" />
            </Array>
          </mxGeometry>
        </mxCell>
        <mxCell id="rQkRtYJSGVrKPp-QHFrH-125" value="&lt;u&gt;Cart_Item_ID&lt;/u&gt;" style="ellipse;whiteSpace=wrap;html=1;fontStyle=1;fillColor=#d0cee2;strokeColor=#56517e;fontSize=20;" parent="1" vertex="1">
          <mxGeometry x="912" y="345" width="170" height="55.91" as="geometry" />
        </mxCell>
        <mxCell id="rQkRtYJSGVrKPp-QHFrH-128" value="Product_ID" style="ellipse;whiteSpace=wrap;html=1;fontStyle=1;fillColor=#d0cee2;strokeColor=#56517e;fontSize=20;" parent="1" vertex="1">
          <mxGeometry x="1122" y="345" width="150" height="59.5" as="geometry" />
        </mxCell>
        <mxCell id="rQkRtYJSGVrKPp-QHFrH-129" value="Cart_ID" style="ellipse;whiteSpace=wrap;html=1;fontStyle=1;fillColor=#d0cee2;strokeColor=#56517e;fontSize=20;" parent="1" vertex="1">
          <mxGeometry x="1025" y="268" width="160" height="59.5" as="geometry" />
        </mxCell>
        <mxCell id="rQkRtYJSGVrKPp-QHFrH-132" style="edgeStyle=orthogonalEdgeStyle;rounded=0;orthogonalLoop=1;jettySize=auto;html=1;exitX=0.5;exitY=1;exitDx=0;exitDy=0;" parent="1" source="rQkRtYJSGVrKPp-QHFrH-128" edge="1">
          <mxGeometry relative="1" as="geometry">
            <mxPoint x="1054" y="519.5" as="targetPoint" />
          </mxGeometry>
        </mxCell>
        <mxCell id="rQkRtYJSGVrKPp-QHFrH-133" style="edgeStyle=orthogonalEdgeStyle;rounded=0;orthogonalLoop=1;jettySize=auto;html=1;exitX=0.5;exitY=1;exitDx=0;exitDy=0;entryX=0.365;entryY=-0.01;entryDx=0;entryDy=0;entryPerimeter=0;" parent="1" source="rQkRtYJSGVrKPp-QHFrH-129" target="rQkRtYJSGVrKPp-QHFrH-122" edge="1">
          <mxGeometry relative="1" as="geometry" />
        </mxCell>
        <mxCell id="rQkRtYJSGVrKPp-QHFrH-148" value="Customer_Address" style="rounded=0;whiteSpace=wrap;html=1;fontFamily=gadugi;fillColor=#ffe6cc;strokeColor=light-dark(#fe3496, #996500);fontSize=23;fontStyle=1" parent="1" vertex="1">
          <mxGeometry x="-1383" y="-1388" width="230" height="123" as="geometry" />
        </mxCell>
        <mxCell id="rQkRtYJSGVrKPp-QHFrH-149" style="edgeStyle=orthogonalEdgeStyle;rounded=0;orthogonalLoop=1;jettySize=auto;html=1;exitX=0.5;exitY=1;exitDx=0;exitDy=0;" parent="1" source="rQkRtYJSGVrKPp-QHFrH-148" target="rQkRtYJSGVrKPp-QHFrH-148" edge="1">
          <mxGeometry relative="1" as="geometry" />
        </mxCell>
        <mxCell id="yJHCzrc06ZQvmD5bulq7-8" style="edgeStyle=orthogonalEdgeStyle;rounded=0;orthogonalLoop=1;jettySize=auto;html=1;exitX=0.5;exitY=1;exitDx=0;exitDy=0;entryX=0;entryY=0.25;entryDx=0;entryDy=0;" parent="1" source="rQkRtYJSGVrKPp-QHFrH-151" target="rQkRtYJSGVrKPp-QHFrH-148" edge="1">
          <mxGeometry relative="1" as="geometry">
            <Array as="points">
              <mxPoint x="-1533" y="-1368" />
              <mxPoint x="-1393" y="-1368" />
              <mxPoint x="-1393" y="-1370" />
            </Array>
          </mxGeometry>
        </mxCell>
        <mxCell id="rQkRtYJSGVrKPp-QHFrH-151" value="&lt;u&gt;Address_ID&lt;/u&gt;" style="ellipse;whiteSpace=wrap;html=1;fontStyle=1;fillColor=#d0cee2;strokeColor=#56517e;direction=west;fontSize=20;" parent="1" vertex="1">
          <mxGeometry x="-1633" y="-1428" width="180" height="43" as="geometry" />
        </mxCell>
        <mxCell id="rQkRtYJSGVrKPp-QHFrH-152" style="edgeStyle=orthogonalEdgeStyle;rounded=0;orthogonalLoop=1;jettySize=auto;html=1;exitX=0.5;exitY=1;exitDx=0;exitDy=0;" parent="1" source="rQkRtYJSGVrKPp-QHFrH-153" target="rQkRtYJSGVrKPp-QHFrH-148" edge="1">
          <mxGeometry relative="1" as="geometry">
            <Array as="points">
              <mxPoint x="-973" y="-1388" />
              <mxPoint x="-973" y="-1378" />
            </Array>
          </mxGeometry>
        </mxCell>
        <mxCell id="rQkRtYJSGVrKPp-QHFrH-153" value="Customer_ID" style="ellipse;whiteSpace=wrap;html=1;fontStyle=1;fillColor=#d0cee2;strokeColor=#56517e;fontSize=20;" parent="1" vertex="1">
          <mxGeometry x="-1043" y="-1431" width="150" height="43" as="geometry" />
        </mxCell>
        <mxCell id="rQkRtYJSGVrKPp-QHFrH-154" value="Postal_Code" style="ellipse;whiteSpace=wrap;html=1;fontStyle=1;fillColor=#d0cee2;strokeColor=#56517e;fontSize=20;" parent="1" vertex="1">
          <mxGeometry x="-1133" y="-1475" width="150" height="40" as="geometry" />
        </mxCell>
        <mxCell id="rQkRtYJSGVrKPp-QHFrH-155" value="Full_Address" style="ellipse;whiteSpace=wrap;html=1;fontStyle=1;fillColor=#d0cee2;strokeColor=#56517e;fontSize=20;" parent="1" vertex="1">
          <mxGeometry x="-1533" y="-1475" width="160" height="40" as="geometry" />
        </mxCell>
        <mxCell id="rQkRtYJSGVrKPp-QHFrH-156" style="edgeStyle=orthogonalEdgeStyle;rounded=0;orthogonalLoop=1;jettySize=auto;html=1;exitX=0.5;exitY=1;exitDx=0;exitDy=0;" parent="1" source="rQkRtYJSGVrKPp-QHFrH-157" target="rQkRtYJSGVrKPp-QHFrH-148" edge="1">
          <mxGeometry relative="1" as="geometry">
            <mxPoint x="-1273" y="-1428" as="sourcePoint" />
          </mxGeometry>
        </mxCell>
        <mxCell id="rQkRtYJSGVrKPp-QHFrH-157" value="City_corporation" style="ellipse;whiteSpace=wrap;html=1;fontStyle=1;fillColor=#d0cee2;strokeColor=#56517e;fontSize=20;" parent="1" vertex="1">
          <mxGeometry x="-1448" y="-1525" width="185" height="50" as="geometry" />
        </mxCell>
        <mxCell id="rQkRtYJSGVrKPp-QHFrH-158" style="edgeStyle=orthogonalEdgeStyle;rounded=0;orthogonalLoop=1;jettySize=auto;html=1;exitX=0.5;exitY=1;exitDx=0;exitDy=0;" parent="1" source="rQkRtYJSGVrKPp-QHFrH-154" edge="1">
          <mxGeometry relative="1" as="geometry">
            <mxPoint x="-1253" y="-1388" as="targetPoint" />
          </mxGeometry>
        </mxCell>
        <mxCell id="rQkRtYJSGVrKPp-QHFrH-159" style="edgeStyle=orthogonalEdgeStyle;rounded=0;orthogonalLoop=1;jettySize=auto;html=1;exitX=0.5;exitY=1;exitDx=0;exitDy=0;entryX=0.365;entryY=-0.01;entryDx=0;entryDy=0;entryPerimeter=0;" parent="1" source="rQkRtYJSGVrKPp-QHFrH-155" target="rQkRtYJSGVrKPp-QHFrH-148" edge="1">
          <mxGeometry relative="1" as="geometry" />
        </mxCell>
        <mxCell id="rQkRtYJSGVrKPp-QHFrH-161" value="Upazila" style="ellipse;whiteSpace=wrap;html=1;fontStyle=1;fillColor=#d0cee2;strokeColor=#56517e;fontSize=20;" parent="1" vertex="1">
          <mxGeometry x="-1253" y="-1525" width="180" height="50" as="geometry" />
        </mxCell>
        <mxCell id="rQkRtYJSGVrKPp-QHFrH-165" style="edgeStyle=orthogonalEdgeStyle;rounded=0;orthogonalLoop=1;jettySize=auto;html=1;exitX=0.5;exitY=1;exitDx=0;exitDy=0;" parent="1" source="rQkRtYJSGVrKPp-QHFrH-153" target="rQkRtYJSGVrKPp-QHFrH-153" edge="1">
          <mxGeometry relative="1" as="geometry" />
        </mxCell>
        <mxCell id="rQkRtYJSGVrKPp-QHFrH-180" value="Orders" style="rounded=0;whiteSpace=wrap;html=1;fontFamily=gadugi;fillColor=#ffe6cc;strokeColor=light-dark(#fe3496, #996500);fontSize=23;fontStyle=1" parent="1" vertex="1">
          <mxGeometry x="9" y="138.99999999999994" width="170" height="70" as="geometry" />
        </mxCell>
        <mxCell id="rQkRtYJSGVrKPp-QHFrH-181" style="edgeStyle=orthogonalEdgeStyle;rounded=0;orthogonalLoop=1;jettySize=auto;html=1;exitX=0.5;exitY=1;exitDx=0;exitDy=0;" parent="1" source="rQkRtYJSGVrKPp-QHFrH-180" target="rQkRtYJSGVrKPp-QHFrH-180" edge="1">
          <mxGeometry relative="1" as="geometry" />
        </mxCell>
        <mxCell id="rQkRtYJSGVrKPp-QHFrH-183" value="&lt;u&gt;Order_ID&lt;/u&gt;" style="ellipse;whiteSpace=wrap;html=1;fontStyle=1;fillColor=#d0cee2;strokeColor=#56517e;direction=west;fontSize=20;" parent="1" vertex="1">
          <mxGeometry x="-91" y="-18.000000000000057" width="148" height="47.93" as="geometry" />
        </mxCell>
        <mxCell id="rQkRtYJSGVrKPp-QHFrH-184" style="edgeStyle=orthogonalEdgeStyle;rounded=0;orthogonalLoop=1;jettySize=auto;html=1;exitX=0.5;exitY=1;exitDx=0;exitDy=0;" parent="1" source="rQkRtYJSGVrKPp-QHFrH-185" target="rQkRtYJSGVrKPp-QHFrH-180" edge="1">
          <mxGeometry relative="1" as="geometry">
            <Array as="points">
              <mxPoint x="470" y="136.99999999999994" />
              <mxPoint x="470" y="146.99999999999994" />
            </Array>
          </mxGeometry>
        </mxCell>
        <mxCell id="rQkRtYJSGVrKPp-QHFrH-185" value="Payment_ID" style="ellipse;whiteSpace=wrap;html=1;fontStyle=1;fillColor=#d0cee2;strokeColor=#56517e;fontSize=20;" parent="1" vertex="1">
          <mxGeometry x="389" y="93.92999999999995" width="150" height="43" as="geometry" />
        </mxCell>
        <mxCell id="hbZG4sB_QH7EyhRolY79-75" style="edgeStyle=orthogonalEdgeStyle;rounded=0;orthogonalLoop=1;jettySize=auto;html=1;exitX=0.5;exitY=1;exitDx=0;exitDy=0;entryX=0.75;entryY=0;entryDx=0;entryDy=0;" parent="1" source="rQkRtYJSGVrKPp-QHFrH-186" target="rQkRtYJSGVrKPp-QHFrH-180" edge="1">
          <mxGeometry relative="1" as="geometry" />
        </mxCell>
        <mxCell id="rQkRtYJSGVrKPp-QHFrH-186" value="Status" style="ellipse;whiteSpace=wrap;html=1;fontStyle=1;fillColor=#d0cee2;strokeColor=#56517e;fontSize=20;" parent="1" vertex="1">
          <mxGeometry x="289" y="16.999999999999943" width="160" height="40.93" as="geometry" />
        </mxCell>
        <mxCell id="hbZG4sB_QH7EyhRolY79-67" style="edgeStyle=orthogonalEdgeStyle;rounded=0;orthogonalLoop=1;jettySize=auto;html=1;exitX=0.5;exitY=1;exitDx=0;exitDy=0;entryX=0.25;entryY=0;entryDx=0;entryDy=0;" parent="1" source="rQkRtYJSGVrKPp-QHFrH-187" target="rQkRtYJSGVrKPp-QHFrH-180" edge="1">
          <mxGeometry relative="1" as="geometry" />
        </mxCell>
        <mxCell id="rQkRtYJSGVrKPp-QHFrH-187" value="User_ID" style="ellipse;whiteSpace=wrap;html=1;fontStyle=1;fillColor=#d0cee2;strokeColor=#56517e;fontSize=20;" parent="1" vertex="1">
          <mxGeometry x="-5" y="-61.930000000000064" width="166" height="40.93" as="geometry" />
        </mxCell>
        <mxCell id="hbZG4sB_QH7EyhRolY79-69" style="edgeStyle=orthogonalEdgeStyle;rounded=0;orthogonalLoop=1;jettySize=auto;html=1;exitX=0;exitY=1;exitDx=0;exitDy=0;" parent="1" source="rQkRtYJSGVrKPp-QHFrH-189" target="rQkRtYJSGVrKPp-QHFrH-180" edge="1">
          <mxGeometry relative="1" as="geometry" />
        </mxCell>
        <mxCell id="rQkRtYJSGVrKPp-QHFrH-189" value="Order_Date" style="ellipse;whiteSpace=wrap;html=1;fontStyle=1;fillColor=#d0cee2;strokeColor=#56517e;fontSize=20;" parent="1" vertex="1">
          <mxGeometry x="146" y="-139" width="171" height="54.93" as="geometry" />
        </mxCell>
        <mxCell id="rQkRtYJSGVrKPp-QHFrH-194" value="Total_Amount" style="ellipse;whiteSpace=wrap;html=1;fontStyle=1;fillColor=#d0cee2;strokeColor=#56517e;fontSize=20;" parent="1" vertex="1">
          <mxGeometry x="199" y="-68.93000000000006" width="150" height="50.93" as="geometry" />
        </mxCell>
        <mxCell id="rQkRtYJSGVrKPp-QHFrH-195" style="edgeStyle=orthogonalEdgeStyle;rounded=0;orthogonalLoop=1;jettySize=auto;html=1;exitX=0.5;exitY=1;exitDx=0;exitDy=0;" parent="1" source="rQkRtYJSGVrKPp-QHFrH-185" target="rQkRtYJSGVrKPp-QHFrH-185" edge="1">
          <mxGeometry relative="1" as="geometry" />
        </mxCell>
        <mxCell id="rQkRtYJSGVrKPp-QHFrH-196" value="Payment" style="rounded=0;whiteSpace=wrap;html=1;fontFamily=gadugi;fillColor=#ffe6cc;strokeColor=light-dark(#fe3496, #996500);fontSize=23;fontStyle=1" parent="1" vertex="1">
          <mxGeometry x="-803" y="284.43" width="160" height="72.5" as="geometry" />
        </mxCell>
        <mxCell id="rQkRtYJSGVrKPp-QHFrH-197" style="edgeStyle=orthogonalEdgeStyle;rounded=0;orthogonalLoop=1;jettySize=auto;html=1;exitX=0.5;exitY=1;exitDx=0;exitDy=0;" parent="1" source="rQkRtYJSGVrKPp-QHFrH-196" target="rQkRtYJSGVrKPp-QHFrH-196" edge="1">
          <mxGeometry relative="1" as="geometry" />
        </mxCell>
        <mxCell id="rQkRtYJSGVrKPp-QHFrH-198" style="edgeStyle=orthogonalEdgeStyle;rounded=0;orthogonalLoop=1;jettySize=auto;html=1;exitX=0.5;exitY=1;exitDx=0;exitDy=0;entryX=0;entryY=0.25;entryDx=0;entryDy=0;" parent="1" source="rQkRtYJSGVrKPp-QHFrH-199" target="rQkRtYJSGVrKPp-QHFrH-196" edge="1">
          <mxGeometry relative="1" as="geometry">
            <mxPoint x="-813" y="294.93" as="targetPoint" />
            <Array as="points">
              <mxPoint x="-953" y="294.93" />
              <mxPoint x="-803" y="294.93" />
            </Array>
          </mxGeometry>
        </mxCell>
        <mxCell id="rQkRtYJSGVrKPp-QHFrH-199" value="&lt;u&gt;Payment_ID&lt;/u&gt;" style="ellipse;whiteSpace=wrap;html=1;fontStyle=1;fillColor=#d0cee2;strokeColor=#56517e;fontSize=20;direction=west;" parent="1" vertex="1">
          <mxGeometry x="-1033" y="236.93" width="160" height="47.5" as="geometry" />
        </mxCell>
        <mxCell id="rQkRtYJSGVrKPp-QHFrH-200" style="edgeStyle=orthogonalEdgeStyle;rounded=0;orthogonalLoop=1;jettySize=auto;html=1;exitX=0.5;exitY=1;exitDx=0;exitDy=0;" parent="1" source="rQkRtYJSGVrKPp-QHFrH-201" target="rQkRtYJSGVrKPp-QHFrH-196" edge="1">
          <mxGeometry relative="1" as="geometry">
            <Array as="points">
              <mxPoint x="-478" y="293.93" />
            </Array>
          </mxGeometry>
        </mxCell>
        <mxCell id="rQkRtYJSGVrKPp-QHFrH-201" value="Amount_Paid" style="ellipse;whiteSpace=wrap;html=1;fontStyle=1;fillColor=#d0cee2;strokeColor=#56517e;fontSize=20;" parent="1" vertex="1">
          <mxGeometry x="-553" y="226.93" width="160" height="50" as="geometry" />
        </mxCell>
        <mxCell id="rQkRtYJSGVrKPp-QHFrH-202" value="Transaction_ID" style="ellipse;whiteSpace=wrap;html=1;fontStyle=1;fillColor=#d0cee2;strokeColor=#56517e;fontSize=20;" parent="1" vertex="1">
          <mxGeometry x="-663" y="176.93" width="170" height="47.5" as="geometry" />
        </mxCell>
        <mxCell id="rQkRtYJSGVrKPp-QHFrH-203" value="Order_ID" style="ellipse;whiteSpace=wrap;html=1;fontStyle=1;fillColor=#d0cee2;strokeColor=#56517e;fontSize=20;" parent="1" vertex="1">
          <mxGeometry x="-953" y="176.93" width="170" height="47.5" as="geometry" />
        </mxCell>
        <mxCell id="rQkRtYJSGVrKPp-QHFrH-204" style="edgeStyle=orthogonalEdgeStyle;rounded=0;orthogonalLoop=1;jettySize=auto;html=1;exitX=0.5;exitY=1;exitDx=0;exitDy=0;" parent="1" target="rQkRtYJSGVrKPp-QHFrH-196" edge="1">
          <mxGeometry relative="1" as="geometry">
            <mxPoint x="-723" y="204.43000000000023" as="sourcePoint" />
          </mxGeometry>
        </mxCell>
        <mxCell id="e_lPp5WETMrQ2OMcBh4P-4" style="edgeStyle=orthogonalEdgeStyle;rounded=0;orthogonalLoop=1;jettySize=auto;html=1;entryX=0.5;entryY=0;entryDx=0;entryDy=0;" parent="1" source="rQkRtYJSGVrKPp-QHFrH-205" target="rQkRtYJSGVrKPp-QHFrH-196" edge="1">
          <mxGeometry relative="1" as="geometry" />
        </mxCell>
        <mxCell id="rQkRtYJSGVrKPp-QHFrH-205" value="Payment_Method" style="ellipse;whiteSpace=wrap;html=1;fontStyle=1;fillColor=#d0cee2;strokeColor=#56517e;fontSize=20;" parent="1" vertex="1">
          <mxGeometry x="-813" y="136.93" width="180" height="50" as="geometry" />
        </mxCell>
        <mxCell id="rQkRtYJSGVrKPp-QHFrH-206" style="edgeStyle=orthogonalEdgeStyle;rounded=0;orthogonalLoop=1;jettySize=auto;html=1;exitX=0.5;exitY=1;exitDx=0;exitDy=0;" parent="1" source="rQkRtYJSGVrKPp-QHFrH-202" edge="1">
          <mxGeometry relative="1" as="geometry">
            <mxPoint x="-703" y="284.43" as="targetPoint" />
          </mxGeometry>
        </mxCell>
        <mxCell id="rQkRtYJSGVrKPp-QHFrH-207" style="edgeStyle=orthogonalEdgeStyle;rounded=0;orthogonalLoop=1;jettySize=auto;html=1;exitX=0.5;exitY=1;exitDx=0;exitDy=0;entryX=0.365;entryY=-0.01;entryDx=0;entryDy=0;entryPerimeter=0;" parent="1" source="rQkRtYJSGVrKPp-QHFrH-203" target="rQkRtYJSGVrKPp-QHFrH-196" edge="1">
          <mxGeometry relative="1" as="geometry" />
        </mxCell>
        <mxCell id="rQkRtYJSGVrKPp-QHFrH-219" value="Cart" style="rounded=0;whiteSpace=wrap;html=1;fontFamily=gadugi;fillColor=#ffe6cc;strokeColor=light-dark(#fe3496, #996500);fontSize=23;fontStyle=1" parent="1" vertex="1">
          <mxGeometry x="1155.5" y="796.42" width="160" height="78" as="geometry" />
        </mxCell>
        <mxCell id="rQkRtYJSGVrKPp-QHFrH-220" style="edgeStyle=orthogonalEdgeStyle;rounded=0;orthogonalLoop=1;jettySize=auto;html=1;exitX=0.5;exitY=1;exitDx=0;exitDy=0;" parent="1" source="rQkRtYJSGVrKPp-QHFrH-219" target="rQkRtYJSGVrKPp-QHFrH-219" edge="1">
          <mxGeometry relative="1" as="geometry" />
        </mxCell>
        <mxCell id="rQkRtYJSGVrKPp-QHFrH-233" style="edgeStyle=orthogonalEdgeStyle;rounded=0;orthogonalLoop=1;jettySize=auto;html=1;exitX=0.5;exitY=1;exitDx=0;exitDy=0;entryX=0.25;entryY=0;entryDx=0;entryDy=0;" parent="1" source="rQkRtYJSGVrKPp-QHFrH-222" target="rQkRtYJSGVrKPp-QHFrH-219" edge="1">
          <mxGeometry relative="1" as="geometry">
            <mxPoint x="1205.5" y="756.42" as="targetPoint" />
          </mxGeometry>
        </mxCell>
        <mxCell id="rQkRtYJSGVrKPp-QHFrH-222" value="Cart_ID" style="ellipse;whiteSpace=wrap;html=1;fontStyle=1;fillColor=#d0cee2;strokeColor=#56517e;fontSize=20;" parent="1" vertex="1">
          <mxGeometry x="1171.5" y="587.42" width="170" height="62" as="geometry" />
        </mxCell>
        <mxCell id="rQkRtYJSGVrKPp-QHFrH-234" style="edgeStyle=orthogonalEdgeStyle;rounded=0;orthogonalLoop=1;jettySize=auto;html=1;exitX=0.5;exitY=1;exitDx=0;exitDy=0;entryX=0.75;entryY=0;entryDx=0;entryDy=0;" parent="1" source="rQkRtYJSGVrKPp-QHFrH-224" target="rQkRtYJSGVrKPp-QHFrH-219" edge="1">
          <mxGeometry relative="1" as="geometry" />
        </mxCell>
        <mxCell id="rQkRtYJSGVrKPp-QHFrH-224" value="Customer_ID" style="ellipse;whiteSpace=wrap;html=1;fontStyle=1;fillColor=#d0cee2;strokeColor=#56517e;fontSize=20;" parent="1" vertex="1">
          <mxGeometry x="1275.5" y="674.42" width="160" height="62" as="geometry" />
        </mxCell>
        <mxCell id="rQkRtYJSGVrKPp-QHFrH-231" style="edgeStyle=orthogonalEdgeStyle;rounded=0;orthogonalLoop=1;jettySize=auto;html=1;exitX=0.5;exitY=1;exitDx=0;exitDy=0;entryX=1;entryY=0.25;entryDx=0;entryDy=0;" parent="1" source="rQkRtYJSGVrKPp-QHFrH-229" target="rQkRtYJSGVrKPp-QHFrH-122" edge="1">
          <mxGeometry relative="1" as="geometry" />
        </mxCell>
        <mxCell id="rQkRtYJSGVrKPp-QHFrH-229" value="Quantity" style="ellipse;whiteSpace=wrap;html=1;fontStyle=1;fillColor=#d0cee2;strokeColor=#56517e;fontSize=20;" parent="1" vertex="1">
          <mxGeometry x="1204" y="420" width="160" height="52.04" as="geometry" />
        </mxCell>
        <mxCell id="rQkRtYJSGVrKPp-QHFrH-236" value="Product" style="rounded=0;whiteSpace=wrap;html=1;fontFamily=gadugi;fillColor=#ffe6cc;strokeColor=light-dark(#fe3496, #996500);fontSize=23;fontStyle=1" parent="1" vertex="1">
          <mxGeometry x="762" y="-209.40000000000003" width="170" height="73.49" as="geometry" />
        </mxCell>
        <mxCell id="rQkRtYJSGVrKPp-QHFrH-237" style="edgeStyle=orthogonalEdgeStyle;rounded=0;orthogonalLoop=1;jettySize=auto;html=1;exitX=0.5;exitY=1;exitDx=0;exitDy=0;" parent="1" source="rQkRtYJSGVrKPp-QHFrH-236" target="rQkRtYJSGVrKPp-QHFrH-236" edge="1">
          <mxGeometry relative="1" as="geometry" />
        </mxCell>
        <mxCell id="rQkRtYJSGVrKPp-QHFrH-238" style="edgeStyle=orthogonalEdgeStyle;rounded=0;orthogonalLoop=1;jettySize=auto;html=1;exitX=0.5;exitY=1;exitDx=0;exitDy=0;" parent="1" source="rQkRtYJSGVrKPp-QHFrH-239" edge="1">
          <mxGeometry relative="1" as="geometry">
            <mxPoint x="752" y="-205.91000000000003" as="targetPoint" />
            <Array as="points">
              <mxPoint x="672" y="-199.40000000000003" />
              <mxPoint x="782" y="-199.40000000000003" />
            </Array>
          </mxGeometry>
        </mxCell>
        <mxCell id="rQkRtYJSGVrKPp-QHFrH-239" value="&lt;u&gt;Product_ID&lt;/u&gt;" style="ellipse;whiteSpace=wrap;html=1;fontStyle=1;fillColor=#d0cee2;strokeColor=#56517e;fontSize=20;" parent="1" vertex="1">
          <mxGeometry x="402" y="-275.91" width="180" height="48.18" as="geometry" />
        </mxCell>
        <mxCell id="rQkRtYJSGVrKPp-QHFrH-241" value="Is_Active" style="ellipse;whiteSpace=wrap;html=1;fontStyle=1;fillColor=#d0cee2;strokeColor=#56517e;fontSize=20;" parent="1" vertex="1">
          <mxGeometry x="940" y="-334" width="140" height="40" as="geometry" />
        </mxCell>
        <mxCell id="rQkRtYJSGVrKPp-QHFrH-242" value="Stock_Quantity" style="ellipse;whiteSpace=wrap;html=1;fontStyle=1;fillColor=#d0cee2;strokeColor=#56517e;fontSize=20;" parent="1" vertex="1">
          <mxGeometry x="916" y="-408" width="170" height="48.18" as="geometry" />
        </mxCell>
        <mxCell id="rQkRtYJSGVrKPp-QHFrH-243" value="Product_Name" style="ellipse;whiteSpace=wrap;html=1;fontStyle=1;fillColor=#d0cee2;strokeColor=#56517e;fontSize=20;" parent="1" vertex="1">
          <mxGeometry x="502" y="-325.91" width="180" height="48.18" as="geometry" />
        </mxCell>
        <mxCell id="rQkRtYJSGVrKPp-QHFrH-244" style="edgeStyle=orthogonalEdgeStyle;rounded=0;orthogonalLoop=1;jettySize=auto;html=1;exitX=0.5;exitY=1;exitDx=0;exitDy=0;" parent="1" source="rQkRtYJSGVrKPp-QHFrH-245" target="rQkRtYJSGVrKPp-QHFrH-236" edge="1">
          <mxGeometry relative="1" as="geometry">
            <mxPoint x="842" y="-249.40000000000003" as="sourcePoint" />
            <Array as="points">
              <mxPoint x="692" y="-268.73" />
              <mxPoint x="832" y="-268.73" />
            </Array>
          </mxGeometry>
        </mxCell>
        <mxCell id="rQkRtYJSGVrKPp-QHFrH-245" value="Product_Price" style="ellipse;whiteSpace=wrap;html=1;fontStyle=1;fillColor=#d0cee2;strokeColor=#56517e;fontSize=20;" parent="1" vertex="1">
          <mxGeometry x="607" y="-375.91" width="160" height="48.18" as="geometry" />
        </mxCell>
        <mxCell id="rQkRtYJSGVrKPp-QHFrH-246" style="edgeStyle=orthogonalEdgeStyle;rounded=0;orthogonalLoop=1;jettySize=auto;html=1;exitX=0.5;exitY=1;exitDx=0;exitDy=0;entryX=0.75;entryY=0;entryDx=0;entryDy=0;" parent="1" source="rQkRtYJSGVrKPp-QHFrH-242" target="rQkRtYJSGVrKPp-QHFrH-236" edge="1">
          <mxGeometry relative="1" as="geometry">
            <mxPoint x="872" y="-217.73000000000002" as="targetPoint" />
            <Array as="points">
              <mxPoint x="890" y="-360" />
            </Array>
          </mxGeometry>
        </mxCell>
        <mxCell id="rQkRtYJSGVrKPp-QHFrH-247" style="edgeStyle=orthogonalEdgeStyle;rounded=0;orthogonalLoop=1;jettySize=auto;html=1;exitX=0.5;exitY=1;exitDx=0;exitDy=0;entryX=0.365;entryY=-0.01;entryDx=0;entryDy=0;entryPerimeter=0;" parent="1" source="rQkRtYJSGVrKPp-QHFrH-243" target="rQkRtYJSGVrKPp-QHFrH-236" edge="1">
          <mxGeometry relative="1" as="geometry" />
        </mxCell>
        <mxCell id="rQkRtYJSGVrKPp-QHFrH-251" style="edgeStyle=orthogonalEdgeStyle;rounded=0;orthogonalLoop=1;jettySize=auto;html=1;exitX=0.5;exitY=1;exitDx=0;exitDy=0;entryX=0.603;entryY=0.067;entryDx=0;entryDy=0;entryPerimeter=0;" parent="1" source="rQkRtYJSGVrKPp-QHFrH-249" target="rQkRtYJSGVrKPp-QHFrH-236" edge="1">
          <mxGeometry relative="1" as="geometry">
            <mxPoint x="912" y="-287.73" as="targetPoint" />
            <Array as="points">
              <mxPoint x="891" y="-426" />
              <mxPoint x="891" y="-371" />
              <mxPoint x="865" y="-371" />
            </Array>
          </mxGeometry>
        </mxCell>
        <mxCell id="rQkRtYJSGVrKPp-QHFrH-249" value="Image" style="ellipse;whiteSpace=wrap;html=1;fontStyle=1;fillColor=#d0cee2;strokeColor=#56517e;fontSize=20;" parent="1" vertex="1">
          <mxGeometry x="865" y="-465.91" width="160" height="40" as="geometry" />
        </mxCell>
        <mxCell id="rQkRtYJSGVrKPp-QHFrH-250" style="edgeStyle=orthogonalEdgeStyle;rounded=0;orthogonalLoop=1;jettySize=auto;html=1;exitX=0.5;exitY=1;exitDx=0;exitDy=0;" parent="1" source="rQkRtYJSGVrKPp-QHFrH-241" target="rQkRtYJSGVrKPp-QHFrH-241" edge="1">
          <mxGeometry relative="1" as="geometry" />
        </mxCell>
        <mxCell id="rQkRtYJSGVrKPp-QHFrH-254" style="edgeStyle=orthogonalEdgeStyle;rounded=0;orthogonalLoop=1;jettySize=auto;html=1;exitX=0.5;exitY=1;exitDx=0;exitDy=0;" parent="1" source="rQkRtYJSGVrKPp-QHFrH-252" edge="1">
          <mxGeometry relative="1" as="geometry">
            <mxPoint x="842" y="-207.73000000000002" as="targetPoint" />
          </mxGeometry>
        </mxCell>
        <mxCell id="rQkRtYJSGVrKPp-QHFrH-252" value="Description" style="ellipse;whiteSpace=wrap;html=1;fontStyle=1;fillColor=#d0cee2;strokeColor=#56517e;fontSize=20;" parent="1" vertex="1">
          <mxGeometry x="692" y="-425.91" width="150" height="45.68" as="geometry" />
        </mxCell>
        <mxCell id="rQkRtYJSGVrKPp-QHFrH-255" style="edgeStyle=orthogonalEdgeStyle;rounded=0;orthogonalLoop=1;jettySize=auto;html=1;exitX=0.5;exitY=1;exitDx=0;exitDy=0;" parent="1" source="rQkRtYJSGVrKPp-QHFrH-253" edge="1">
          <mxGeometry relative="1" as="geometry">
            <mxPoint x="852" y="-207.73000000000002" as="targetPoint" />
          </mxGeometry>
        </mxCell>
        <mxCell id="rQkRtYJSGVrKPp-QHFrH-253" value="Category_ID" style="ellipse;whiteSpace=wrap;html=1;fontStyle=1;fillColor=#d0cee2;strokeColor=#56517e;fontSize=20;" parent="1" vertex="1">
          <mxGeometry x="778" y="-518.5500000000001" width="150" height="45.68" as="geometry" />
        </mxCell>
        <mxCell id="hbZG4sB_QH7EyhRolY79-156" style="edgeStyle=orthogonalEdgeStyle;rounded=0;orthogonalLoop=1;jettySize=auto;html=1;exitX=0.75;exitY=1;exitDx=0;exitDy=0;entryX=0.5;entryY=0;entryDx=0;entryDy=0;" parent="1" source="rQkRtYJSGVrKPp-QHFrH-275" target="rQkRtYJSGVrKPp-QHFrH-281" edge="1">
          <mxGeometry relative="1" as="geometry" />
        </mxCell>
        <mxCell id="rQkRtYJSGVrKPp-QHFrH-275" value="Rider" style="rounded=0;whiteSpace=wrap;html=1;fontFamily=gadugi;fillColor=#ffe6cc;strokeColor=light-dark(#fe3496, #996500);fontSize=23;fontStyle=1" parent="1" vertex="1">
          <mxGeometry x="462" y="-986.6700000000001" width="220" height="71.67" as="geometry" />
        </mxCell>
        <mxCell id="rQkRtYJSGVrKPp-QHFrH-276" style="edgeStyle=orthogonalEdgeStyle;rounded=0;orthogonalLoop=1;jettySize=auto;html=1;exitX=0.5;exitY=1;exitDx=0;exitDy=0;" parent="1" source="rQkRtYJSGVrKPp-QHFrH-275" target="rQkRtYJSGVrKPp-QHFrH-275" edge="1">
          <mxGeometry relative="1" as="geometry" />
        </mxCell>
        <mxCell id="hbZG4sB_QH7EyhRolY79-163" style="edgeStyle=orthogonalEdgeStyle;rounded=0;orthogonalLoop=1;jettySize=auto;html=1;exitX=0.5;exitY=1;exitDx=0;exitDy=0;" parent="1" source="rQkRtYJSGVrKPp-QHFrH-278" edge="1">
          <mxGeometry relative="1" as="geometry">
            <mxPoint x="532" y="-987" as="targetPoint" />
            <Array as="points">
              <mxPoint x="532" y="-1107" />
              <mxPoint x="532" y="-987" />
            </Array>
          </mxGeometry>
        </mxCell>
        <mxCell id="rQkRtYJSGVrKPp-QHFrH-278" value="&lt;u&gt;Rider_ID&lt;/u&gt;" style="ellipse;whiteSpace=wrap;html=1;fontStyle=1;fillColor=#d0cee2;strokeColor=#56517e;fontSize=20;" parent="1" vertex="1">
          <mxGeometry x="480" y="-1167" width="130" height="60" as="geometry" />
        </mxCell>
        <mxCell id="rQkRtYJSGVrKPp-QHFrH-281" value="Max_Delivery" style="ellipse;whiteSpace=wrap;html=1;fontStyle=1;fillColor=#d0cee2;strokeColor=#56517e;fontSize=20;" parent="1" vertex="1">
          <mxGeometry x="623" y="-866.9999999999999" width="150" height="60" as="geometry" />
        </mxCell>
        <mxCell id="hbZG4sB_QH7EyhRolY79-162" style="edgeStyle=orthogonalEdgeStyle;rounded=0;orthogonalLoop=1;jettySize=auto;html=1;exitX=0;exitY=1;exitDx=0;exitDy=0;" parent="1" source="rQkRtYJSGVrKPp-QHFrH-282" edge="1">
          <mxGeometry relative="1" as="geometry">
            <mxPoint x="646" y="-976.599853515625" as="targetPoint" />
          </mxGeometry>
        </mxCell>
        <mxCell id="rQkRtYJSGVrKPp-QHFrH-282" value="Rider_Name" style="ellipse;whiteSpace=wrap;html=1;fontStyle=1;fillColor=#d0cee2;strokeColor=#56517e;fontSize=20;" parent="1" vertex="1">
          <mxGeometry x="625" y="-1163" width="146" height="60" as="geometry" />
        </mxCell>
        <mxCell id="hbZG4sB_QH7EyhRolY79-158" style="edgeStyle=orthogonalEdgeStyle;rounded=0;orthogonalLoop=1;jettySize=auto;html=1;exitX=0;exitY=0;exitDx=0;exitDy=0;entryX=1;entryY=0.75;entryDx=0;entryDy=0;" parent="1" source="rQkRtYJSGVrKPp-QHFrH-288" target="rQkRtYJSGVrKPp-QHFrH-275" edge="1">
          <mxGeometry relative="1" as="geometry" />
        </mxCell>
        <mxCell id="rQkRtYJSGVrKPp-QHFrH-288" value="Active_status" style="ellipse;whiteSpace=wrap;html=1;fontStyle=1;fillColor=#d0cee2;strokeColor=#56517e;fontSize=20;" parent="1" vertex="1">
          <mxGeometry x="773" y="-920.9999999999999" width="154" height="60" as="geometry" />
        </mxCell>
        <mxCell id="rQkRtYJSGVrKPp-QHFrH-289" style="edgeStyle=orthogonalEdgeStyle;rounded=0;orthogonalLoop=1;jettySize=auto;html=1;exitX=0.5;exitY=1;exitDx=0;exitDy=0;" parent="1" edge="1">
          <mxGeometry relative="1" as="geometry">
            <mxPoint x="912" y="-1004.9999999999995" as="sourcePoint" />
            <mxPoint x="912" y="-1004.9999999999995" as="targetPoint" />
          </mxGeometry>
        </mxCell>
        <mxCell id="hbZG4sB_QH7EyhRolY79-161" style="edgeStyle=orthogonalEdgeStyle;rounded=0;orthogonalLoop=1;jettySize=auto;html=1;exitX=0;exitY=1;exitDx=0;exitDy=0;entryX=1;entryY=0;entryDx=0;entryDy=0;" parent="1" source="rQkRtYJSGVrKPp-QHFrH-295" target="rQkRtYJSGVrKPp-QHFrH-275" edge="1">
          <mxGeometry relative="1" as="geometry" />
        </mxCell>
        <mxCell id="rQkRtYJSGVrKPp-QHFrH-295" value="Rider_Phone" style="ellipse;whiteSpace=wrap;html=1;fontStyle=1;fillColor=#d0cee2;strokeColor=#56517e;fontSize=20;" parent="1" vertex="1">
          <mxGeometry x="733" y="-1096.22" width="180" height="60" as="geometry" />
        </mxCell>
        <mxCell id="rQkRtYJSGVrKPp-QHFrH-297" value="Rider_Preferred_Area" style="rounded=0;whiteSpace=wrap;html=1;fontFamily=gadugi;fillColor=#ffe6cc;strokeColor=light-dark(#fe3496, #996500);fontSize=23;fontStyle=1" parent="1" vertex="1">
          <mxGeometry x="-369" y="-1192.55" width="360" height="82.67" as="geometry" />
        </mxCell>
        <mxCell id="rQkRtYJSGVrKPp-QHFrH-298" style="edgeStyle=orthogonalEdgeStyle;rounded=0;orthogonalLoop=1;jettySize=auto;html=1;exitX=0.5;exitY=1;exitDx=0;exitDy=0;" parent="1" source="rQkRtYJSGVrKPp-QHFrH-297" target="rQkRtYJSGVrKPp-QHFrH-297" edge="1">
          <mxGeometry relative="1" as="geometry" />
        </mxCell>
        <mxCell id="rQkRtYJSGVrKPp-QHFrH-299" style="edgeStyle=orthogonalEdgeStyle;rounded=0;orthogonalLoop=1;jettySize=auto;html=1;exitX=0.5;exitY=1;exitDx=0;exitDy=0;entryX=0.25;entryY=0;entryDx=0;entryDy=0;" parent="1" source="rQkRtYJSGVrKPp-QHFrH-300" target="rQkRtYJSGVrKPp-QHFrH-297" edge="1">
          <mxGeometry relative="1" as="geometry">
            <mxPoint x="-219" y="-1234.2199999999998" as="targetPoint" />
          </mxGeometry>
        </mxCell>
        <mxCell id="rQkRtYJSGVrKPp-QHFrH-300" value="Rider_ID" style="ellipse;whiteSpace=wrap;html=1;fontStyle=1;fillColor=#d0cee2;strokeColor=#56517e;fontSize=20;" parent="1" vertex="1">
          <mxGeometry x="-439" y="-1309.8799999999999" width="210" height="55.66" as="geometry" />
        </mxCell>
        <mxCell id="rQkRtYJSGVrKPp-QHFrH-301" style="edgeStyle=orthogonalEdgeStyle;rounded=0;orthogonalLoop=1;jettySize=auto;html=1;exitX=0.5;exitY=1;exitDx=0;exitDy=0;entryX=0.75;entryY=0;entryDx=0;entryDy=0;" parent="1" source="rQkRtYJSGVrKPp-QHFrH-302" target="rQkRtYJSGVrKPp-QHFrH-297" edge="1">
          <mxGeometry relative="1" as="geometry" />
        </mxCell>
        <mxCell id="rQkRtYJSGVrKPp-QHFrH-302" value="Upazila" style="ellipse;whiteSpace=wrap;html=1;fontStyle=1;fillColor=#d0cee2;strokeColor=#56517e;fontSize=20;" parent="1" vertex="1">
          <mxGeometry x="-114" y="-1309.8799999999999" width="195" height="55.66" as="geometry" />
        </mxCell>
        <mxCell id="rQkRtYJSGVrKPp-QHFrH-304" value="" style="edgeStyle=orthogonalEdgeStyle;rounded=0;orthogonalLoop=1;jettySize=auto;html=1;" parent="1" target="rQkRtYJSGVrKPp-QHFrH-297" edge="1">
          <mxGeometry relative="1" as="geometry">
            <mxPoint x="-189" y="-1300.8799999999994" as="sourcePoint" />
          </mxGeometry>
        </mxCell>
        <mxCell id="rQkRtYJSGVrKPp-QHFrH-303" value="City_Corporation" style="ellipse;whiteSpace=wrap;html=1;fontStyle=1;fillColor=#d0cee2;strokeColor=#56517e;fontSize=20;" parent="1" vertex="1">
          <mxGeometry x="-289" y="-1369.8799999999999" width="200" height="70" as="geometry" />
        </mxCell>
        <mxCell id="rQkRtYJSGVrKPp-QHFrH-306" value="" style="rounded=0;whiteSpace=wrap;html=1;opacity=20;strokeColor=#090909;strokeWidth=8;" parent="1" vertex="1">
          <mxGeometry x="-389" y="-1206.2199999999998" width="400" height="110" as="geometry" />
        </mxCell>
        <mxCell id="rQkRtYJSGVrKPp-QHFrH-308" value="First_Order_Discount" style="rounded=0;html=1;fontFamily=gadugi;fillColor=#ffe6cc;strokeColor=light-dark(#fe3496, #996500);fontSize=23;fontStyle=1;whiteSpace=wrap;" parent="1" vertex="1">
          <mxGeometry x="190" y="749.21" width="330" height="100" as="geometry" />
        </mxCell>
        <mxCell id="rQkRtYJSGVrKPp-QHFrH-309" style="edgeStyle=orthogonalEdgeStyle;rounded=0;orthogonalLoop=1;jettySize=auto;html=1;exitX=0.5;exitY=1;exitDx=0;exitDy=0;" parent="1" source="rQkRtYJSGVrKPp-QHFrH-308" target="rQkRtYJSGVrKPp-QHFrH-308" edge="1">
          <mxGeometry relative="1" as="geometry" />
        </mxCell>
        <mxCell id="yJHCzrc06ZQvmD5bulq7-16" style="edgeStyle=orthogonalEdgeStyle;rounded=0;orthogonalLoop=1;jettySize=auto;html=1;exitX=0.5;exitY=1;exitDx=0;exitDy=0;" parent="1" source="rQkRtYJSGVrKPp-QHFrH-311" edge="1">
          <mxGeometry relative="1" as="geometry">
            <mxPoint x="352" y="737" as="targetPoint" />
            <Array as="points">
              <mxPoint x="352" y="749" />
            </Array>
          </mxGeometry>
        </mxCell>
        <mxCell id="rQkRtYJSGVrKPp-QHFrH-311" value="&lt;u&gt;Customer_ID&lt;/u&gt;" style="ellipse;whiteSpace=wrap;html=1;fontStyle=1;fillColor=#d0cee2;strokeColor=#56517e;fontSize=20;" parent="1" vertex="1">
          <mxGeometry x="239" y="512" width="225" height="47.5" as="geometry" />
        </mxCell>
        <mxCell id="rQkRtYJSGVrKPp-QHFrH-312" value="Discount_Amount" style="ellipse;whiteSpace=wrap;html=1;fontStyle=1;fillColor=#d0cee2;strokeColor=#56517e;fontSize=20;" parent="1" vertex="1">
          <mxGeometry x="544" y="642.75" width="210" height="50" as="geometry" />
        </mxCell>
        <mxCell id="rQkRtYJSGVrKPp-QHFrH-313" value="Is_Discount_Used" style="ellipse;whiteSpace=wrap;html=1;fontStyle=1;fillColor=#d0cee2;strokeColor=#56517e;fontSize=20;" parent="1" vertex="1">
          <mxGeometry x="427" y="546" width="220" height="50" as="geometry" />
        </mxCell>
        <mxCell id="rQkRtYJSGVrKPp-QHFrH-314" style="edgeStyle=orthogonalEdgeStyle;rounded=0;orthogonalLoop=1;jettySize=auto;html=1;exitX=0.5;exitY=1;exitDx=0;exitDy=0;" parent="1" source="rQkRtYJSGVrKPp-QHFrH-312" edge="1">
          <mxGeometry relative="1" as="geometry">
            <mxPoint x="502" y="740" as="targetPoint" />
            <Array as="points">
              <mxPoint x="649" y="721" />
              <mxPoint x="502" y="721" />
              <mxPoint x="502" y="749" />
            </Array>
          </mxGeometry>
        </mxCell>
        <mxCell id="rQkRtYJSGVrKPp-QHFrH-315" style="edgeStyle=orthogonalEdgeStyle;rounded=0;orthogonalLoop=1;jettySize=auto;html=1;exitX=0.5;exitY=1;exitDx=0;exitDy=0;" parent="1" source="rQkRtYJSGVrKPp-QHFrH-313" edge="1">
          <mxGeometry relative="1" as="geometry">
            <mxPoint x="457" y="748" as="targetPoint" />
            <Array as="points">
              <mxPoint x="537" y="673" />
              <mxPoint x="457" y="673" />
              <mxPoint x="457" y="748" />
            </Array>
          </mxGeometry>
        </mxCell>
        <mxCell id="hbZG4sB_QH7EyhRolY79-199" style="edgeStyle=orthogonalEdgeStyle;rounded=0;orthogonalLoop=1;jettySize=auto;html=1;exitX=0;exitY=0.5;exitDx=0;exitDy=0;" parent="1" source="rQkRtYJSGVrKPp-QHFrH-317" edge="1">
          <mxGeometry relative="1" as="geometry">
            <mxPoint x="524.400146484375" y="756" as="targetPoint" />
            <Array as="points">
              <mxPoint x="619" y="756" />
              <mxPoint x="524" y="757" />
            </Array>
          </mxGeometry>
        </mxCell>
        <mxCell id="rQkRtYJSGVrKPp-QHFrH-317" value="Applied_On_Order_ID" style="ellipse;whiteSpace=wrap;html=1;fontStyle=1;fillColor=#d0cee2;strokeColor=#56517e;fontSize=20;" parent="1" vertex="1">
          <mxGeometry x="649" y="730.89" width="230" height="47.5" as="geometry" />
        </mxCell>
        <mxCell id="rQkRtYJSGVrKPp-QHFrH-318" value="Category" style="rounded=0;whiteSpace=wrap;html=1;fontFamily=gadugi;fillColor=#ffe6cc;strokeColor=light-dark(#fe3496, #996500);fontSize=23;fontStyle=1" parent="1" vertex="1">
          <mxGeometry x="1212" y="-91.2" width="160" height="78" as="geometry" />
        </mxCell>
        <mxCell id="rQkRtYJSGVrKPp-QHFrH-319" style="edgeStyle=orthogonalEdgeStyle;rounded=0;orthogonalLoop=1;jettySize=auto;html=1;exitX=0.5;exitY=1;exitDx=0;exitDy=0;entryX=0.5;entryY=1;entryDx=0;entryDy=0;" parent="1" source="rQkRtYJSGVrKPp-QHFrH-318" target="rQkRtYJSGVrKPp-QHFrH-318" edge="1">
          <mxGeometry relative="1" as="geometry" />
        </mxCell>
        <mxCell id="rQkRtYJSGVrKPp-QHFrH-320" style="edgeStyle=orthogonalEdgeStyle;rounded=0;orthogonalLoop=1;jettySize=auto;html=1;exitX=0.5;exitY=1;exitDx=0;exitDy=0;entryX=0.25;entryY=0;entryDx=0;entryDy=0;" parent="1" source="rQkRtYJSGVrKPp-QHFrH-321" target="rQkRtYJSGVrKPp-QHFrH-318" edge="1">
          <mxGeometry relative="1" as="geometry">
            <mxPoint x="1262" y="-131.2" as="targetPoint" />
          </mxGeometry>
        </mxCell>
        <mxCell id="rQkRtYJSGVrKPp-QHFrH-321" value="&lt;u&gt;Category_ID&lt;/u&gt;" style="ellipse;whiteSpace=wrap;html=1;fontStyle=1;fillColor=#d0cee2;strokeColor=#56517e;fontSize=20;" parent="1" vertex="1">
          <mxGeometry x="1062" y="-213.2" width="190" height="62" as="geometry" />
        </mxCell>
        <mxCell id="rQkRtYJSGVrKPp-QHFrH-322" style="edgeStyle=orthogonalEdgeStyle;rounded=0;orthogonalLoop=1;jettySize=auto;html=1;exitX=0.5;exitY=1;exitDx=0;exitDy=0;entryX=0.75;entryY=0;entryDx=0;entryDy=0;" parent="1" source="rQkRtYJSGVrKPp-QHFrH-323" target="rQkRtYJSGVrKPp-QHFrH-318" edge="1">
          <mxGeometry relative="1" as="geometry" />
        </mxCell>
        <mxCell id="rQkRtYJSGVrKPp-QHFrH-323" value="Category_Name" style="ellipse;whiteSpace=wrap;html=1;fontStyle=1;fillColor=#d0cee2;strokeColor=#56517e;fontSize=20;" parent="1" vertex="1">
          <mxGeometry x="1312" y="-213.2" width="190" height="62" as="geometry" />
        </mxCell>
        <mxCell id="rQkRtYJSGVrKPp-QHFrH-324" value="Delivery" style="rounded=0;whiteSpace=wrap;html=1;fontFamily=gadugi;fillColor=#ffe6cc;strokeColor=light-dark(#fe3496, #996500);fontSize=23;fontStyle=1" parent="1" vertex="1">
          <mxGeometry x="-251" y="-367.48999999999995" width="290" height="77.58" as="geometry" />
        </mxCell>
        <mxCell id="rQkRtYJSGVrKPp-QHFrH-325" style="edgeStyle=orthogonalEdgeStyle;rounded=0;orthogonalLoop=1;jettySize=auto;html=1;exitX=0.5;exitY=1;exitDx=0;exitDy=0;" parent="1" source="rQkRtYJSGVrKPp-QHFrH-324" target="rQkRtYJSGVrKPp-QHFrH-324" edge="1">
          <mxGeometry relative="1" as="geometry" />
        </mxCell>
        <mxCell id="rQkRtYJSGVrKPp-QHFrH-326" style="edgeStyle=orthogonalEdgeStyle;rounded=0;orthogonalLoop=1;jettySize=auto;html=1;exitX=0.5;exitY=1;exitDx=0;exitDy=0;" parent="1" source="rQkRtYJSGVrKPp-QHFrH-327" edge="1">
          <mxGeometry relative="1" as="geometry">
            <mxPoint x="-251" y="-357.91" as="targetPoint" />
            <Array as="points">
              <mxPoint x="-276" y="-357.48999999999995" />
              <mxPoint x="-166" y="-357.48999999999995" />
            </Array>
          </mxGeometry>
        </mxCell>
        <mxCell id="rQkRtYJSGVrKPp-QHFrH-327" value="&lt;u&gt;Delivery_ID&lt;/u&gt;" style="ellipse;whiteSpace=wrap;html=1;fontStyle=1;fillColor=#d0cee2;strokeColor=#56517e;fontSize=20;" parent="1" vertex="1">
          <mxGeometry x="-641" y="-439.91" width="175" height="54.09" as="geometry" />
        </mxCell>
        <mxCell id="hbZG4sB_QH7EyhRolY79-182" style="edgeStyle=orthogonalEdgeStyle;rounded=0;orthogonalLoop=1;jettySize=auto;html=1;exitX=0;exitY=1;exitDx=0;exitDy=0;" parent="1" source="rQkRtYJSGVrKPp-QHFrH-329" edge="1">
          <mxGeometry relative="1" as="geometry">
            <mxPoint x="-13" y="-355.9098779296875" as="targetPoint" />
          </mxGeometry>
        </mxCell>
        <mxCell id="rQkRtYJSGVrKPp-QHFrH-329" value="Tracking_Number" style="ellipse;whiteSpace=wrap;html=1;fontStyle=1;fillColor=#d0cee2;strokeColor=#56517e;fontSize=20;" parent="1" vertex="1">
          <mxGeometry x="-37" y="-573.8199999999999" width="190" height="54.09" as="geometry" />
        </mxCell>
        <mxCell id="hbZG4sB_QH7EyhRolY79-181" style="edgeStyle=orthogonalEdgeStyle;rounded=0;orthogonalLoop=1;jettySize=auto;html=1;exitX=0.5;exitY=1;exitDx=0;exitDy=0;" parent="1" source="rQkRtYJSGVrKPp-QHFrH-330" edge="1">
          <mxGeometry relative="1" as="geometry">
            <Array as="points">
              <mxPoint x="-63" y="-367.91" />
            </Array>
            <mxPoint x="-63" y="-367" as="targetPoint" />
          </mxGeometry>
        </mxCell>
        <mxCell id="rQkRtYJSGVrKPp-QHFrH-330" value="Delivery_Status" style="ellipse;whiteSpace=wrap;html=1;fontStyle=1;fillColor=#d0cee2;strokeColor=#56517e;fontSize=20;" parent="1" vertex="1">
          <mxGeometry x="-153" y="-644.9100000000001" width="180" height="50" as="geometry" />
        </mxCell>
        <mxCell id="hbZG4sB_QH7EyhRolY79-174" style="edgeStyle=orthogonalEdgeStyle;rounded=0;orthogonalLoop=1;jettySize=auto;html=1;exitX=1;exitY=1;exitDx=0;exitDy=0;" parent="1" source="rQkRtYJSGVrKPp-QHFrH-331" edge="1">
          <mxGeometry relative="1" as="geometry">
            <mxPoint x="-247.39990234375" y="-371.9098779296875" as="targetPoint" />
            <Array as="points">
              <mxPoint x="-499" y="-441.91" />
              <mxPoint x="-247" y="-441.91" />
            </Array>
          </mxGeometry>
        </mxCell>
        <mxCell id="rQkRtYJSGVrKPp-QHFrH-331" value="Order_ID" style="ellipse;whiteSpace=wrap;html=1;fontStyle=1;fillColor=#d0cee2;strokeColor=#56517e;fontSize=20;" parent="1" vertex="1">
          <mxGeometry x="-661" y="-513.9100000000001" width="190" height="50" as="geometry" />
        </mxCell>
        <mxCell id="rQkRtYJSGVrKPp-QHFrH-333" value="Actual_Delivery_date" style="ellipse;whiteSpace=wrap;html=1;fontStyle=1;fillColor=#d0cee2;strokeColor=#56517e;fontSize=20;" parent="1" vertex="1">
          <mxGeometry x="-677" y="-594.9100000000001" width="265" height="64.09" as="geometry" />
        </mxCell>
        <mxCell id="hbZG4sB_QH7EyhRolY79-178" style="edgeStyle=orthogonalEdgeStyle;rounded=0;orthogonalLoop=1;jettySize=auto;html=1;exitX=0.5;exitY=1;exitDx=0;exitDy=0;entryX=0.25;entryY=0;entryDx=0;entryDy=0;" parent="1" source="rQkRtYJSGVrKPp-QHFrH-336" target="rQkRtYJSGVrKPp-QHFrH-324" edge="1">
          <mxGeometry relative="1" as="geometry" />
        </mxCell>
        <mxCell id="rQkRtYJSGVrKPp-QHFrH-336" value="Estimated_Delivery_Date" style="ellipse;whiteSpace=wrap;html=1;fontStyle=1;fillColor=#d0cee2;strokeColor=#56517e;fontSize=20;" parent="1" vertex="1">
          <mxGeometry x="-316" y="-732" width="275" height="64.09" as="geometry" />
        </mxCell>
        <mxCell id="rQkRtYJSGVrKPp-QHFrH-337" style="edgeStyle=orthogonalEdgeStyle;rounded=0;orthogonalLoop=1;jettySize=auto;html=1;exitX=0.5;exitY=1;exitDx=0;exitDy=0;" parent="1" source="rQkRtYJSGVrKPp-QHFrH-329" target="rQkRtYJSGVrKPp-QHFrH-329" edge="1">
          <mxGeometry relative="1" as="geometry" />
        </mxCell>
        <mxCell id="rQkRtYJSGVrKPp-QHFrH-340" value="Rider_ID" style="ellipse;whiteSpace=wrap;html=1;fontStyle=1;fillColor=#d0cee2;strokeColor=#56517e;fontSize=20;" parent="1" vertex="1">
          <mxGeometry x="-471" y="-659.9100000000001" width="170" height="49.75" as="geometry" />
        </mxCell>
        <mxCell id="rQkRtYJSGVrKPp-QHFrH-341" value="Gift_Card_Transaction" style="rounded=0;whiteSpace=wrap;html=1;fontFamily=gadugi;fillColor=#ffe6cc;strokeColor=light-dark(#fe3496, #996500);fontSize=23;fontStyle=1" parent="1" vertex="1">
          <mxGeometry x="-1050" y="797.4200000000001" width="310" height="80" as="geometry" />
        </mxCell>
        <mxCell id="rQkRtYJSGVrKPp-QHFrH-342" style="edgeStyle=orthogonalEdgeStyle;rounded=0;orthogonalLoop=1;jettySize=auto;html=1;exitX=0.5;exitY=1;exitDx=0;exitDy=0;" parent="1" edge="1">
          <mxGeometry relative="1" as="geometry">
            <mxPoint x="-471" y="-586.24" as="sourcePoint" />
            <mxPoint x="-471" y="-586.24" as="targetPoint" />
          </mxGeometry>
        </mxCell>
        <mxCell id="rQkRtYJSGVrKPp-QHFrH-344" value="Transaction_ID" style="ellipse;whiteSpace=wrap;html=1;fontStyle=5;fillColor=#d0cee2;strokeColor=#56517e;fontSize=20;direction=west;" parent="1" vertex="1">
          <mxGeometry x="-1200" y="717.4200000000001" width="170" height="45.68" as="geometry" />
        </mxCell>
        <mxCell id="rQkRtYJSGVrKPp-QHFrH-345" value="Order_ID" style="ellipse;whiteSpace=wrap;html=1;fontStyle=1;fillColor=#d0cee2;strokeColor=#56517e;fontSize=20;" parent="1" vertex="1">
          <mxGeometry x="-875" y="491" width="180" height="48.68" as="geometry" />
        </mxCell>
        <mxCell id="rQkRtYJSGVrKPp-QHFrH-346" value="Gift_card_ID" style="ellipse;whiteSpace=wrap;html=1;fontStyle=1;fillColor=#d0cee2;strokeColor=#56517e;fontSize=20;" parent="1" vertex="1">
          <mxGeometry x="-1110" y="657.4200000000001" width="170" height="48.68" as="geometry" />
        </mxCell>
        <mxCell id="rQkRtYJSGVrKPp-QHFrH-350" value="Amount_Used" style="ellipse;whiteSpace=wrap;html=1;fontStyle=1;fillColor=#d0cee2;strokeColor=#56517e;fontSize=20;" parent="1" vertex="1">
          <mxGeometry x="-772" y="554.4200000000001" width="190" height="50" as="geometry" />
        </mxCell>
        <mxCell id="rQkRtYJSGVrKPp-QHFrH-352" style="edgeStyle=orthogonalEdgeStyle;rounded=0;orthogonalLoop=1;jettySize=auto;html=1;" parent="1" source="rQkRtYJSGVrKPp-QHFrH-351" target="rQkRtYJSGVrKPp-QHFrH-341" edge="1">
          <mxGeometry relative="1" as="geometry" />
        </mxCell>
        <mxCell id="rQkRtYJSGVrKPp-QHFrH-351" value="Transaction_Date" style="ellipse;whiteSpace=wrap;html=1;fontStyle=1;fillColor=#d0cee2;strokeColor=#56517e;fontSize=20;" parent="1" vertex="1">
          <mxGeometry x="-995" y="587.4200000000001" width="200" height="58.68" as="geometry" />
        </mxCell>
        <mxCell id="rQkRtYJSGVrKPp-QHFrH-368" value="Product_Audit" style="rounded=0;whiteSpace=wrap;html=1;fontFamily=gadugi;fillColor=#ffe6cc;strokeColor=light-dark(#fe3496, #996500);textShadow=0;labelBorderColor=none;labelBackgroundColor=none;fontSize=23;fontStyle=1" parent="1" vertex="1">
          <mxGeometry x="1089" y="-1144.39" width="210" height="75.22" as="geometry" />
        </mxCell>
        <mxCell id="rQkRtYJSGVrKPp-QHFrH-369" style="edgeStyle=orthogonalEdgeStyle;rounded=0;orthogonalLoop=1;jettySize=auto;html=1;exitX=0.5;exitY=1;exitDx=0;exitDy=0;textShadow=0;labelBorderColor=none;labelBackgroundColor=none;" parent="1" source="rQkRtYJSGVrKPp-QHFrH-368" target="rQkRtYJSGVrKPp-QHFrH-368" edge="1">
          <mxGeometry relative="1" as="geometry" />
        </mxCell>
        <mxCell id="rQkRtYJSGVrKPp-QHFrH-371" value="Audit_ID" style="ellipse;whiteSpace=wrap;html=1;fontStyle=5;fillColor=#d0cee2;strokeColor=#56517e;textShadow=0;labelBorderColor=none;labelBackgroundColor=none;fontSize=20;" parent="1" vertex="1">
          <mxGeometry x="1049" y="-1239.17" width="160" height="44.78" as="geometry" />
        </mxCell>
        <mxCell id="hbZG4sB_QH7EyhRolY79-97" style="edgeStyle=orthogonalEdgeStyle;rounded=0;orthogonalLoop=1;jettySize=auto;html=1;exitX=0;exitY=0.5;exitDx=0;exitDy=0;entryX=0.75;entryY=1;entryDx=0;entryDy=0;" parent="1" source="rQkRtYJSGVrKPp-QHFrH-373" target="rQkRtYJSGVrKPp-QHFrH-368" edge="1">
          <mxGeometry relative="1" as="geometry" />
        </mxCell>
        <mxCell id="rQkRtYJSGVrKPp-QHFrH-373" value="Time_Stamp" style="ellipse;whiteSpace=wrap;html=1;fontStyle=1;fillColor=#d0cee2;strokeColor=#56517e;textShadow=0;labelBorderColor=none;labelBackgroundColor=none;fontSize=20;" parent="1" vertex="1">
          <mxGeometry x="1352" y="-1014.17" width="150" height="43" as="geometry" />
        </mxCell>
        <mxCell id="hbZG4sB_QH7EyhRolY79-99" style="edgeStyle=orthogonalEdgeStyle;rounded=0;orthogonalLoop=1;jettySize=auto;html=1;exitX=0;exitY=1;exitDx=0;exitDy=0;entryX=1;entryY=1;entryDx=0;entryDy=0;" parent="1" source="rQkRtYJSGVrKPp-QHFrH-374" target="rQkRtYJSGVrKPp-QHFrH-368" edge="1">
          <mxGeometry relative="1" as="geometry" />
        </mxCell>
        <mxCell id="rQkRtYJSGVrKPp-QHFrH-374" value="Change_Details" style="ellipse;whiteSpace=wrap;html=1;fontStyle=1;fillColor=#d0cee2;strokeColor=#56517e;textShadow=0;labelBorderColor=none;labelBackgroundColor=none;fontSize=20;" parent="1" vertex="1">
          <mxGeometry x="1397" y="-1088.17" width="160" height="47.78" as="geometry" />
        </mxCell>
        <mxCell id="hbZG4sB_QH7EyhRolY79-106" style="edgeStyle=orthogonalEdgeStyle;rounded=0;orthogonalLoop=1;jettySize=auto;html=1;exitX=0.5;exitY=1;exitDx=0;exitDy=0;entryX=0.75;entryY=0;entryDx=0;entryDy=0;" parent="1" source="rQkRtYJSGVrKPp-QHFrH-375" target="rQkRtYJSGVrKPp-QHFrH-368" edge="1">
          <mxGeometry relative="1" as="geometry">
            <Array as="points">
              <mxPoint x="1243" y="-1158.17" />
              <mxPoint x="1247" y="-1158.17" />
            </Array>
          </mxGeometry>
        </mxCell>
        <mxCell id="rQkRtYJSGVrKPp-QHFrH-375" value="Admin_ID" style="ellipse;whiteSpace=wrap;html=1;fontStyle=1;fillColor=#d0cee2;strokeColor=#56517e;textShadow=0;labelBorderColor=none;labelBackgroundColor=none;fontSize=20;" parent="1" vertex="1">
          <mxGeometry x="1168" y="-1298.17" width="150" height="47.78" as="geometry" />
        </mxCell>
        <mxCell id="rQkRtYJSGVrKPp-QHFrH-377" value="Product_ID" style="ellipse;whiteSpace=wrap;html=1;fontStyle=1;fillColor=#d0cee2;strokeColor=#56517e;textShadow=0;labelBorderColor=none;labelBackgroundColor=none;fontSize=20;" parent="1" vertex="1">
          <mxGeometry x="1355" y="-1271.17" width="130" height="47.78" as="geometry" />
        </mxCell>
        <mxCell id="hbZG4sB_QH7EyhRolY79-100" style="edgeStyle=orthogonalEdgeStyle;rounded=0;orthogonalLoop=1;jettySize=auto;html=1;exitX=0;exitY=0.5;exitDx=0;exitDy=0;entryX=1;entryY=0.25;entryDx=0;entryDy=0;" parent="1" source="rQkRtYJSGVrKPp-QHFrH-381" target="rQkRtYJSGVrKPp-QHFrH-368" edge="1">
          <mxGeometry relative="1" as="geometry">
            <Array as="points">
              <mxPoint x="1409" y="-1125.17" />
            </Array>
          </mxGeometry>
        </mxCell>
        <mxCell id="rQkRtYJSGVrKPp-QHFrH-381" value="Change_Type" style="ellipse;whiteSpace=wrap;html=1;fontStyle=1;fillColor=#d0cee2;strokeColor=#56517e;textShadow=0;labelBorderColor=none;labelBackgroundColor=none;fontSize=20;" parent="1" vertex="1">
          <mxGeometry x="1409" y="-1153.17" width="140" height="47.78" as="geometry" />
        </mxCell>
        <mxCell id="rQkRtYJSGVrKPp-QHFrH-382" style="edgeStyle=orthogonalEdgeStyle;rounded=0;orthogonalLoop=1;jettySize=auto;html=1;exitX=0.5;exitY=1;exitDx=0;exitDy=0;textShadow=0;labelBorderColor=none;labelBackgroundColor=none;" parent="1" source="rQkRtYJSGVrKPp-QHFrH-373" target="rQkRtYJSGVrKPp-QHFrH-373" edge="1">
          <mxGeometry relative="1" as="geometry" />
        </mxCell>
        <mxCell id="rQkRtYJSGVrKPp-QHFrH-402" value="Gift_Card" style="rounded=0;whiteSpace=wrap;html=1;fontFamily=gadugi;fillColor=#ffe6cc;strokeColor=light-dark(#fe3496, #996500);fontSize=23;fontStyle=1" parent="1" vertex="1">
          <mxGeometry x="-1270" y="-560.72" width="190" height="97.72" as="geometry" />
        </mxCell>
        <mxCell id="rQkRtYJSGVrKPp-QHFrH-403" style="edgeStyle=orthogonalEdgeStyle;rounded=0;orthogonalLoop=1;jettySize=auto;html=1;exitX=0.5;exitY=1;exitDx=0;exitDy=0;" parent="1" source="rQkRtYJSGVrKPp-QHFrH-402" target="rQkRtYJSGVrKPp-QHFrH-402" edge="1">
          <mxGeometry relative="1" as="geometry" />
        </mxCell>
        <mxCell id="hbZG4sB_QH7EyhRolY79-82" style="edgeStyle=orthogonalEdgeStyle;rounded=0;orthogonalLoop=1;jettySize=auto;html=1;exitX=0.5;exitY=1;exitDx=0;exitDy=0;entryX=0.5;entryY=0;entryDx=0;entryDy=0;" parent="1" source="rQkRtYJSGVrKPp-QHFrH-405" target="rQkRtYJSGVrKPp-QHFrH-402" edge="1">
          <mxGeometry relative="1" as="geometry" />
        </mxCell>
        <mxCell id="rQkRtYJSGVrKPp-QHFrH-405" value="Gift_Card_ID" style="ellipse;whiteSpace=wrap;html=1;fontStyle=5;fillColor=#d0cee2;strokeColor=#56517e;fontSize=20;" parent="1" vertex="1">
          <mxGeometry x="-1253" y="-807" width="156" height="40" as="geometry" />
        </mxCell>
        <mxCell id="hbZG4sB_QH7EyhRolY79-119" style="edgeStyle=orthogonalEdgeStyle;rounded=0;orthogonalLoop=1;jettySize=auto;html=1;exitX=1;exitY=0.5;exitDx=0;exitDy=0;entryX=0;entryY=0.5;entryDx=0;entryDy=0;" parent="1" source="rQkRtYJSGVrKPp-QHFrH-407" target="rQkRtYJSGVrKPp-QHFrH-402" edge="1">
          <mxGeometry relative="1" as="geometry">
            <mxPoint x="-1375" y="-508" as="targetPoint" />
          </mxGeometry>
        </mxCell>
        <mxCell id="rQkRtYJSGVrKPp-QHFrH-407" value="Payment_ID" style="ellipse;whiteSpace=wrap;html=1;fontStyle=1;fillColor=#d0cee2;strokeColor=#56517e;fontSize=20;" parent="1" vertex="1">
          <mxGeometry x="-1584" y="-496" width="160" height="43" as="geometry" />
        </mxCell>
        <mxCell id="hbZG4sB_QH7EyhRolY79-120" style="edgeStyle=orthogonalEdgeStyle;rounded=0;orthogonalLoop=1;jettySize=auto;html=1;exitX=1;exitY=0.5;exitDx=0;exitDy=0;entryX=0;entryY=1;entryDx=0;entryDy=0;" parent="1" source="rQkRtYJSGVrKPp-QHFrH-408" target="rQkRtYJSGVrKPp-QHFrH-402" edge="1">
          <mxGeometry relative="1" as="geometry" />
        </mxCell>
        <mxCell id="rQkRtYJSGVrKPp-QHFrH-408" value="Expiration_Date" style="ellipse;whiteSpace=wrap;html=1;fontStyle=1;fillColor=#d0cee2;strokeColor=#56517e;fontSize=20;" parent="1" vertex="1">
          <mxGeometry x="-1569" y="-413" width="180" height="40" as="geometry" />
        </mxCell>
        <mxCell id="hbZG4sB_QH7EyhRolY79-115" style="edgeStyle=orthogonalEdgeStyle;rounded=0;orthogonalLoop=1;jettySize=auto;html=1;exitX=1;exitY=0.5;exitDx=0;exitDy=0;entryX=0.25;entryY=0;entryDx=0;entryDy=0;" parent="1" source="rQkRtYJSGVrKPp-QHFrH-409" target="rQkRtYJSGVrKPp-QHFrH-402" edge="1">
          <mxGeometry relative="1" as="geometry" />
        </mxCell>
        <mxCell id="rQkRtYJSGVrKPp-QHFrH-409" value="Sender_ID" style="ellipse;whiteSpace=wrap;html=1;fontStyle=1;fillColor=#d0cee2;strokeColor=#56517e;fontSize=20;" parent="1" vertex="1">
          <mxGeometry x="-1481" y="-684" width="160" height="39.93" as="geometry" />
        </mxCell>
        <mxCell id="hbZG4sB_QH7EyhRolY79-117" style="edgeStyle=orthogonalEdgeStyle;rounded=0;orthogonalLoop=1;jettySize=auto;html=1;exitX=1;exitY=0.5;exitDx=0;exitDy=0;" parent="1" edge="1">
          <mxGeometry relative="1" as="geometry">
            <mxPoint x="-1411.9999999999982" y="-597.74" as="sourcePoint" />
            <mxPoint x="-1238" y="-558.74" as="targetPoint" />
            <Array as="points">
              <mxPoint x="-1237" y="-597.74" />
            </Array>
          </mxGeometry>
        </mxCell>
        <mxCell id="rQkRtYJSGVrKPp-QHFrH-411" value="Personal_Note" style="ellipse;whiteSpace=wrap;html=1;fontStyle=1;fillColor=#d0cee2;strokeColor=#56517e;fontSize=20;" parent="1" vertex="1">
          <mxGeometry x="-1562" y="-620" width="166" height="40" as="geometry" />
        </mxCell>
        <mxCell id="hbZG4sB_QH7EyhRolY79-121" style="edgeStyle=orthogonalEdgeStyle;rounded=0;orthogonalLoop=1;jettySize=auto;html=1;exitX=1;exitY=0.5;exitDx=0;exitDy=0;" parent="1" source="rQkRtYJSGVrKPp-QHFrH-415" edge="1">
          <mxGeometry relative="1" as="geometry">
            <mxPoint x="-1228.6666870117188" y="-457.66636149088527" as="targetPoint" />
          </mxGeometry>
        </mxCell>
        <mxCell id="rQkRtYJSGVrKPp-QHFrH-415" value="Generated_At" style="ellipse;whiteSpace=wrap;html=1;fontStyle=1;fillColor=#d0cee2;strokeColor=#56517e;fontSize=20;" parent="1" vertex="1">
          <mxGeometry x="-1527" y="-349.00000000000006" width="176" height="40" as="geometry" />
        </mxCell>
        <mxCell id="rQkRtYJSGVrKPp-QHFrH-416" style="edgeStyle=orthogonalEdgeStyle;rounded=0;orthogonalLoop=1;jettySize=auto;html=1;exitX=0.5;exitY=1;exitDx=0;exitDy=0;" parent="1" source="rQkRtYJSGVrKPp-QHFrH-407" target="rQkRtYJSGVrKPp-QHFrH-407" edge="1">
          <mxGeometry relative="1" as="geometry" />
        </mxCell>
        <mxCell id="hbZG4sB_QH7EyhRolY79-118" style="edgeStyle=orthogonalEdgeStyle;rounded=0;orthogonalLoop=1;jettySize=auto;html=1;exitX=0;exitY=0.5;exitDx=0;exitDy=0;entryX=0;entryY=0.25;entryDx=0;entryDy=0;" parent="1" source="rQkRtYJSGVrKPp-QHFrH-418" target="rQkRtYJSGVrKPp-QHFrH-402" edge="1">
          <mxGeometry relative="1" as="geometry">
            <Array as="points">
              <mxPoint x="-1270" y="-545" />
            </Array>
          </mxGeometry>
        </mxCell>
        <mxCell id="rQkRtYJSGVrKPp-QHFrH-418" value="Recipient_Email" style="ellipse;whiteSpace=wrap;html=1;fontStyle=1;fillColor=#d0cee2;strokeColor=#56517e;fontSize=20;direction=west;" parent="1" vertex="1">
          <mxGeometry x="-1584" y="-565" width="180" height="40" as="geometry" />
        </mxCell>
        <mxCell id="rQkRtYJSGVrKPp-QHFrH-419" style="edgeStyle=orthogonalEdgeStyle;rounded=0;orthogonalLoop=1;jettySize=auto;html=1;exitX=0.5;exitY=1;exitDx=0;exitDy=0;" parent="1" source="rQkRtYJSGVrKPp-QHFrH-420" edge="1">
          <mxGeometry relative="1" as="geometry">
            <mxPoint x="-1164" y="-559.0500000000001" as="targetPoint" />
          </mxGeometry>
        </mxCell>
        <mxCell id="rQkRtYJSGVrKPp-QHFrH-420" value="Used_Status" style="ellipse;whiteSpace=wrap;html=1;fontStyle=1;fillColor=#d0cee2;strokeColor=#56517e;fontSize=20;" parent="1" vertex="1">
          <mxGeometry x="-1160" y="-748.71" width="180" height="40" as="geometry" />
        </mxCell>
        <mxCell id="rQkRtYJSGVrKPp-QHFrH-422" value="Gift_Amount" style="ellipse;whiteSpace=wrap;html=1;fontStyle=1;fillColor=#d0cee2;strokeColor=#56517e;fontSize=20;" parent="1" vertex="1">
          <mxGeometry x="-1381" y="-745" width="170" height="50" as="geometry" />
        </mxCell>
        <mxCell id="rQkRtYJSGVrKPp-QHFrH-107" value="User" style="rounded=0;whiteSpace=wrap;html=1;fontFamily=gadugi;fillColor=#ffe6cc;strokeColor=light-dark(#fe3496, #996500);fontSize=23;fontStyle=1" parent="1" vertex="1">
          <mxGeometry x="-2" y="-1596.75" width="210" height="88" as="geometry" />
        </mxCell>
        <mxCell id="yJHCzrc06ZQvmD5bulq7-12" style="edgeStyle=orthogonalEdgeStyle;rounded=0;orthogonalLoop=1;jettySize=auto;html=1;exitX=0.5;exitY=1;exitDx=0;exitDy=0;entryX=0.856;entryY=-0.005;entryDx=0;entryDy=0;entryPerimeter=0;" parent="1" source="rQkRtYJSGVrKPp-QHFrH-350" target="rQkRtYJSGVrKPp-QHFrH-341" edge="1">
          <mxGeometry relative="1" as="geometry" />
        </mxCell>
        <mxCell id="yJHCzrc06ZQvmD5bulq7-14" style="edgeStyle=orthogonalEdgeStyle;rounded=0;orthogonalLoop=1;jettySize=auto;html=1;exitX=0.5;exitY=1;exitDx=0;exitDy=0;entryX=0.645;entryY=0.075;entryDx=0;entryDy=0;entryPerimeter=0;" parent="1" source="rQkRtYJSGVrKPp-QHFrH-345" target="rQkRtYJSGVrKPp-QHFrH-341" edge="1">
          <mxGeometry relative="1" as="geometry" />
        </mxCell>
        <mxCell id="yJHCzrc06ZQvmD5bulq7-15" style="edgeStyle=orthogonalEdgeStyle;rounded=0;orthogonalLoop=1;jettySize=auto;html=1;exitX=0.5;exitY=1;exitDx=0;exitDy=0;entryX=0.361;entryY=0.035;entryDx=0;entryDy=0;entryPerimeter=0;" parent="1" source="rQkRtYJSGVrKPp-QHFrH-346" target="rQkRtYJSGVrKPp-QHFrH-341" edge="1">
          <mxGeometry relative="1" as="geometry" />
        </mxCell>
        <mxCell id="yJHCzrc06ZQvmD5bulq7-20" value="&lt;font style=&quot;font-size: 35px;&quot;&gt;&lt;font style=&quot;&quot; face=&quot;gadugi&quot;&gt;&lt;b style=&quot;&quot;&gt;Project Name:&lt;/b&gt;&amp;nbsp;&lt;/font&gt;&lt;b style=&quot;&quot;&gt;&lt;span style=&quot;line-height: 115%;&quot;&gt;চা খাবেন?&lt;/span&gt;&lt;/b&gt;&lt;font style=&quot;&quot; face=&quot;gadugi&quot;&gt;&amp;nbsp;&lt;/font&gt;&lt;/font&gt;&lt;div&gt;&lt;font style=&quot;font-size: 35px;&quot; face=&quot;gadugi&quot;&gt;&lt;b&gt;Name: &lt;/b&gt;Aziza Zaman Sadia,&amp;nbsp; &amp;nbsp;&lt;b&gt;ID:&lt;/b&gt; 2231603642&lt;/font&gt;&lt;div&gt;&lt;font style=&quot;font-size: 35px;&quot; face=&quot;gadugi&quot;&gt;&lt;b style=&quot;&quot;&gt;Name:&lt;/b&gt; Shakirin Himi,&amp;nbsp; &amp;nbsp;&lt;b style=&quot;&quot;&gt;ID: &lt;/b&gt;2211573042&lt;/font&gt;&lt;/div&gt;&lt;/div&gt;" style="shape=note;whiteSpace=wrap;html=1;backgroundOutline=1;fontColor=#333333;darkOpacity=0.05;fillColor=#f5f5f5;strokeColor=#666666;fillStyle=solid;direction=west;gradientDirection=north;shadow=1;size=20;pointerEvents=1;fontFamily=Li Sirajee Sylheti Unicode;fontStyle=0" parent="1" vertex="1">
          <mxGeometry x="-1556" y="-2225" width="1518" height="190" as="geometry" />
        </mxCell>
        <mxCell id="e_lPp5WETMrQ2OMcBh4P-5" style="edgeStyle=orthogonalEdgeStyle;rounded=0;orthogonalLoop=1;jettySize=auto;html=1;exitX=0.5;exitY=0;exitDx=0;exitDy=0;entryX=0.117;entryY=0.071;entryDx=0;entryDy=0;entryPerimeter=0;" parent="1" source="rQkRtYJSGVrKPp-QHFrH-344" target="rQkRtYJSGVrKPp-QHFrH-341" edge="1">
          <mxGeometry relative="1" as="geometry" />
        </mxCell>
        <mxCell id="e_lPp5WETMrQ2OMcBh4P-7" style="edgeStyle=orthogonalEdgeStyle;rounded=0;orthogonalLoop=1;jettySize=auto;html=1;exitX=0.5;exitY=1;exitDx=0;exitDy=0;entryX=0.552;entryY=-0.014;entryDx=0;entryDy=0;entryPerimeter=0;" parent="1" source="rQkRtYJSGVrKPp-QHFrH-161" target="rQkRtYJSGVrKPp-QHFrH-148" edge="1">
          <mxGeometry relative="1" as="geometry" />
        </mxCell>
        <mxCell id="hbZG4sB_QH7EyhRolY79-1" value="Attribute" style="ellipse;whiteSpace=wrap;html=1;fontStyle=1;fillColor=#d0cee2;strokeColor=#56517e;fontSize=20;" parent="1" vertex="1">
          <mxGeometry x="535" y="-2160" width="230" height="90" as="geometry" />
        </mxCell>
        <mxCell id="hbZG4sB_QH7EyhRolY79-2" value="Entity" style="rounded=0;whiteSpace=wrap;html=1;fontFamily=gadugi;fillColor=#ffe6cc;strokeColor=light-dark(#fe3496, #996500);fontSize=23;fontStyle=1" parent="1" vertex="1">
          <mxGeometry x="190" y="-2164" width="210" height="88" as="geometry" />
        </mxCell>
        <mxCell id="hbZG4sB_QH7EyhRolY79-3" value="Relationship" style="rhombus;whiteSpace=wrap;html=1;fillColor=#fff2cc;strokeColor=#d6b656;gradientColor=#ffd966;fontFamily=gadugi;fontSize=20;fontStyle=1" parent="1" vertex="1">
          <mxGeometry x="900" y="-2200" width="140" height="160" as="geometry" />
        </mxCell>
        <mxCell id="hbZG4sB_QH7EyhRolY79-16" value="Admin" style="rounded=0;whiteSpace=wrap;html=1;fontFamily=gadugi;fillColor=#ffe6cc;strokeColor=light-dark(#fe3496, #996500);fontSize=23;fontStyle=1" parent="1" vertex="1">
          <mxGeometry x="726" y="-1598.83" width="360" height="82.67" as="geometry" />
        </mxCell>
        <mxCell id="hbZG4sB_QH7EyhRolY79-17" style="edgeStyle=orthogonalEdgeStyle;rounded=0;orthogonalLoop=1;jettySize=auto;html=1;exitX=0.5;exitY=1;exitDx=0;exitDy=0;" parent="1" source="hbZG4sB_QH7EyhRolY79-16" target="hbZG4sB_QH7EyhRolY79-16" edge="1">
          <mxGeometry relative="1" as="geometry" />
        </mxCell>
        <mxCell id="hbZG4sB_QH7EyhRolY79-18" style="edgeStyle=orthogonalEdgeStyle;rounded=0;orthogonalLoop=1;jettySize=auto;html=1;exitX=0.5;exitY=1;exitDx=0;exitDy=0;entryX=0.25;entryY=0;entryDx=0;entryDy=0;" parent="1" source="hbZG4sB_QH7EyhRolY79-19" target="hbZG4sB_QH7EyhRolY79-16" edge="1">
          <mxGeometry relative="1" as="geometry">
            <mxPoint x="858" y="-1642.8399999999997" as="targetPoint" />
          </mxGeometry>
        </mxCell>
        <mxCell id="hbZG4sB_QH7EyhRolY79-19" value="Admin_ID" style="ellipse;whiteSpace=wrap;html=1;fontStyle=5;fillColor=#d0cee2;strokeColor=#56517e;fontSize=20;" parent="1" vertex="1">
          <mxGeometry x="538" y="-1708.4999999999998" width="210" height="55.66" as="geometry" />
        </mxCell>
        <mxCell id="hbZG4sB_QH7EyhRolY79-20" style="edgeStyle=orthogonalEdgeStyle;rounded=0;orthogonalLoop=1;jettySize=auto;html=1;exitX=0.5;exitY=1;exitDx=0;exitDy=0;entryX=0.75;entryY=0;entryDx=0;entryDy=0;" parent="1" source="hbZG4sB_QH7EyhRolY79-21" target="hbZG4sB_QH7EyhRolY79-16" edge="1">
          <mxGeometry relative="1" as="geometry" />
        </mxCell>
        <mxCell id="hbZG4sB_QH7EyhRolY79-21" value="User_ID" style="ellipse;whiteSpace=wrap;html=1;fontStyle=1;fillColor=#d0cee2;strokeColor=#56517e;fontSize=20;" parent="1" vertex="1">
          <mxGeometry x="1018" y="-1708.4999999999998" width="195" height="55.66" as="geometry" />
        </mxCell>
        <mxCell id="hbZG4sB_QH7EyhRolY79-22" value="" style="edgeStyle=orthogonalEdgeStyle;rounded=0;orthogonalLoop=1;jettySize=auto;html=1;exitX=0.571;exitY=1.021;exitDx=0;exitDy=0;exitPerimeter=0;" parent="1" source="hbZG4sB_QH7EyhRolY79-23" target="hbZG4sB_QH7EyhRolY79-16" edge="1">
          <mxGeometry relative="1" as="geometry">
            <mxPoint x="888" y="-1636" as="sourcePoint" />
          </mxGeometry>
        </mxCell>
        <mxCell id="hbZG4sB_QH7EyhRolY79-23" value="Admin_Name" style="ellipse;whiteSpace=wrap;html=1;fontStyle=1;fillColor=#d0cee2;strokeColor=#56517e;fontSize=20;" parent="1" vertex="1">
          <mxGeometry x="668" y="-1778.4999999999998" width="200" height="70" as="geometry" />
        </mxCell>
        <mxCell id="hbZG4sB_QH7EyhRolY79-24" value="Image" style="ellipse;whiteSpace=wrap;html=1;fontStyle=1;fillColor=#d0cee2;strokeColor=#56517e;fontSize=20;" parent="1" vertex="1">
          <mxGeometry x="898" y="-1785.9999999999998" width="200" height="70" as="geometry" />
        </mxCell>
        <mxCell id="hbZG4sB_QH7EyhRolY79-25" style="edgeStyle=orthogonalEdgeStyle;rounded=0;orthogonalLoop=1;jettySize=auto;html=1;entryX=0.606;entryY=0.057;entryDx=0;entryDy=0;entryPerimeter=0;" parent="1" source="hbZG4sB_QH7EyhRolY79-24" target="hbZG4sB_QH7EyhRolY79-16" edge="1">
          <mxGeometry relative="1" as="geometry" />
        </mxCell>
        <mxCell id="hbZG4sB_QH7EyhRolY79-26" style="edgeStyle=orthogonalEdgeStyle;rounded=0;orthogonalLoop=1;jettySize=auto;html=1;exitX=0.5;exitY=1;exitDx=0;exitDy=0;entryX=0.846;entryY=0.02;entryDx=0;entryDy=0;entryPerimeter=0;" parent="1" source="rQkRtYJSGVrKPp-QHFrH-112" target="rQkRtYJSGVrKPp-QHFrH-107" edge="1">
          <mxGeometry relative="1" as="geometry">
            <Array as="points">
              <mxPoint x="328" y="-1617" />
              <mxPoint x="176" y="-1617" />
            </Array>
          </mxGeometry>
        </mxCell>
        <mxCell id="hbZG4sB_QH7EyhRolY79-28" style="edgeStyle=orthogonalEdgeStyle;rounded=0;orthogonalLoop=1;jettySize=auto;html=1;exitX=0.5;exitY=1;exitDx=0;exitDy=0;entryX=0.385;entryY=0.013;entryDx=0;entryDy=0;entryPerimeter=0;" parent="1" source="rQkRtYJSGVrKPp-QHFrH-81" target="rQkRtYJSGVrKPp-QHFrH-78" edge="1">
          <mxGeometry relative="1" as="geometry" />
        </mxCell>
        <mxCell id="hbZG4sB_QH7EyhRolY79-30" value="User_ID" style="ellipse;whiteSpace=wrap;html=1;fontStyle=1;fillColor=#d0cee2;strokeColor=#56517e;fontSize=20;" parent="1" vertex="1">
          <mxGeometry x="-742" y="-1758.5" width="200" height="50" as="geometry" />
        </mxCell>
        <mxCell id="hbZG4sB_QH7EyhRolY79-32" style="edgeStyle=orthogonalEdgeStyle;rounded=0;orthogonalLoop=1;jettySize=auto;html=1;exitX=0.5;exitY=1;exitDx=0;exitDy=0;entryX=0.676;entryY=-0.004;entryDx=0;entryDy=0;entryPerimeter=0;" parent="1" source="hbZG4sB_QH7EyhRolY79-30" target="rQkRtYJSGVrKPp-QHFrH-78" edge="1">
          <mxGeometry relative="1" as="geometry" />
        </mxCell>
        <mxCell id="hbZG4sB_QH7EyhRolY79-33" value="&lt;font&gt;&lt;b&gt;IS_AN_ADMIN&lt;/b&gt;&lt;/font&gt;" style="rhombus;whiteSpace=wrap;html=1;fillColor=#fff2cc;strokeColor=#d6b656;gradientColor=#ffd966;fontFamily=gadugi;fontSize=18;" parent="1" vertex="1">
          <mxGeometry x="423" y="-1632.75" width="163" height="157.75" as="geometry" />
        </mxCell>
        <mxCell id="hbZG4sB_QH7EyhRolY79-160" style="edgeStyle=orthogonalEdgeStyle;rounded=0;orthogonalLoop=1;jettySize=auto;html=1;exitX=0;exitY=0.5;exitDx=0;exitDy=0;entryX=1;entryY=0.25;entryDx=0;entryDy=0;" parent="1" source="hbZG4sB_QH7EyhRolY79-37" target="rQkRtYJSGVrKPp-QHFrH-275" edge="1">
          <mxGeometry relative="1" as="geometry" />
        </mxCell>
        <mxCell id="hbZG4sB_QH7EyhRolY79-37" value="User_ID" style="ellipse;whiteSpace=wrap;html=1;fontStyle=1;fillColor=#d0cee2;strokeColor=#56517e;fontSize=20;" parent="1" vertex="1">
          <mxGeometry x="788" y="-995" width="180" height="60" as="geometry" />
        </mxCell>
        <mxCell id="hbZG4sB_QH7EyhRolY79-48" value="HAS_GCARD" style="rhombus;whiteSpace=wrap;html=1;fillColor=#fff2cc;strokeColor=#d6b656;gradientColor=#ffd966;fontSize=18;fontFamily=gadugi;fontStyle=1" parent="1" vertex="1">
          <mxGeometry x="-967" y="-942" width="140" height="160" as="geometry" />
        </mxCell>
        <mxCell id="hbZG4sB_QH7EyhRolY79-56" value="PLACES_ORDER" style="rhombus;whiteSpace=wrap;html=1;fillColor=#fff2cc;strokeColor=#d6b656;gradientColor=#ffd966;fontStyle=1;fontSize=18;textShadow=0;fontFamily=gadugi;" parent="1" vertex="1">
          <mxGeometry x="-921" y="-148" width="179" height="160" as="geometry" />
        </mxCell>
        <mxCell id="hbZG4sB_QH7EyhRolY79-63" value="" style="endArrow=none;html=1;rounded=0;entryX=0.5;entryY=1;entryDx=0;entryDy=0;exitX=0.5;exitY=0;exitDx=0;exitDy=0;" parent="1" source="hbZG4sB_QH7EyhRolY79-128" target="rQkRtYJSGVrKPp-QHFrH-180" edge="1">
          <mxGeometry width="50" height="50" relative="1" as="geometry">
            <mxPoint x="-586" y="352" as="sourcePoint" />
            <mxPoint x="-607" y="111.99999999999994" as="targetPoint" />
          </mxGeometry>
        </mxCell>
        <mxCell id="hbZG4sB_QH7EyhRolY79-66" style="edgeStyle=orthogonalEdgeStyle;rounded=0;orthogonalLoop=1;jettySize=auto;html=1;exitX=0.5;exitY=0;exitDx=0;exitDy=0;entryX=0.119;entryY=0.038;entryDx=0;entryDy=0;entryPerimeter=0;" parent="1" source="rQkRtYJSGVrKPp-QHFrH-183" target="rQkRtYJSGVrKPp-QHFrH-180" edge="1">
          <mxGeometry relative="1" as="geometry" />
        </mxCell>
        <mxCell id="hbZG4sB_QH7EyhRolY79-72" style="edgeStyle=orthogonalEdgeStyle;rounded=0;orthogonalLoop=1;jettySize=auto;html=1;exitX=0.5;exitY=1;exitDx=0;exitDy=0;entryX=0.61;entryY=0.013;entryDx=0;entryDy=0;entryPerimeter=0;" parent="1" source="rQkRtYJSGVrKPp-QHFrH-194" target="rQkRtYJSGVrKPp-QHFrH-180" edge="1">
          <mxGeometry relative="1" as="geometry" />
        </mxCell>
        <mxCell id="hbZG4sB_QH7EyhRolY79-79" style="edgeStyle=orthogonalEdgeStyle;rounded=0;orthogonalLoop=1;jettySize=auto;html=1;exitX=0.5;exitY=1;exitDx=0;exitDy=0;" parent="1" source="rQkRtYJSGVrKPp-QHFrH-409" target="rQkRtYJSGVrKPp-QHFrH-409" edge="1">
          <mxGeometry relative="1" as="geometry" />
        </mxCell>
        <mxCell id="hbZG4sB_QH7EyhRolY79-84" value="" style="endArrow=none;html=1;rounded=0;entryX=0.5;entryY=1;entryDx=0;entryDy=0;exitX=1;exitY=0;exitDx=0;exitDy=0;" parent="1" source="rQkRtYJSGVrKPp-QHFrH-402" target="hbZG4sB_QH7EyhRolY79-48" edge="1">
          <mxGeometry width="50" height="50" relative="1" as="geometry">
            <mxPoint x="-259" y="-565" as="sourcePoint" />
            <mxPoint x="-209" y="-615" as="targetPoint" />
          </mxGeometry>
        </mxCell>
        <mxCell id="hbZG4sB_QH7EyhRolY79-85" value="HAS_ADDRESS" style="rhombus;whiteSpace=wrap;html=1;fillColor=#fff2cc;strokeColor=#d6b656;gradientColor=#ffd966;fontStyle=1;fontSize=15;textShadow=0;" parent="1" vertex="1">
          <mxGeometry x="-1088" y="-1231.22" width="137" height="160" as="geometry" />
        </mxCell>
        <mxCell id="hbZG4sB_QH7EyhRolY79-87" value="" style="endArrow=none;html=1;rounded=0;entryX=0;entryY=1;entryDx=0;entryDy=0;exitX=1;exitY=0.5;exitDx=0;exitDy=0;" parent="1" source="hbZG4sB_QH7EyhRolY79-85" target="rQkRtYJSGVrKPp-QHFrH-78" edge="1">
          <mxGeometry width="50" height="50" relative="1" as="geometry">
            <mxPoint x="-1107" y="-587" as="sourcePoint" />
            <mxPoint x="-1057" y="-637" as="targetPoint" />
          </mxGeometry>
        </mxCell>
        <mxCell id="hbZG4sB_QH7EyhRolY79-98" style="edgeStyle=orthogonalEdgeStyle;rounded=0;orthogonalLoop=1;jettySize=auto;html=1;exitX=0.5;exitY=1;exitDx=0;exitDy=0;" parent="1" source="rQkRtYJSGVrKPp-QHFrH-374" target="rQkRtYJSGVrKPp-QHFrH-374" edge="1">
          <mxGeometry relative="1" as="geometry" />
        </mxCell>
        <mxCell id="hbZG4sB_QH7EyhRolY79-105" style="edgeStyle=orthogonalEdgeStyle;rounded=0;orthogonalLoop=1;jettySize=auto;html=1;exitX=0;exitY=1;exitDx=0;exitDy=0;entryX=0.887;entryY=0.096;entryDx=0;entryDy=0;entryPerimeter=0;" parent="1" source="rQkRtYJSGVrKPp-QHFrH-377" target="rQkRtYJSGVrKPp-QHFrH-368" edge="1">
          <mxGeometry relative="1" as="geometry" />
        </mxCell>
        <mxCell id="hbZG4sB_QH7EyhRolY79-107" style="edgeStyle=orthogonalEdgeStyle;rounded=0;orthogonalLoop=1;jettySize=auto;html=1;exitX=0.5;exitY=1;exitDx=0;exitDy=0;entryX=0.646;entryY=0.025;entryDx=0;entryDy=0;entryPerimeter=0;" parent="1" source="rQkRtYJSGVrKPp-QHFrH-371" target="rQkRtYJSGVrKPp-QHFrH-368" edge="1">
          <mxGeometry relative="1" as="geometry" />
        </mxCell>
        <mxCell id="hbZG4sB_QH7EyhRolY79-108" value="CAN_AUDIT" style="rhombus;whiteSpace=wrap;html=1;fillColor=#fff2cc;strokeColor=#d6b656;gradientColor=#ffd966;fontStyle=1;fontSize=18;fontFamily=gadugi;" parent="1" vertex="1">
          <mxGeometry x="888" y="-1444" width="140" height="187" as="geometry" />
        </mxCell>
        <mxCell id="hbZG4sB_QH7EyhRolY79-110" value="" style="endArrow=none;html=1;rounded=0;entryX=0.5;entryY=1;entryDx=0;entryDy=0;exitX=0;exitY=1;exitDx=0;exitDy=0;" parent="1" source="rQkRtYJSGVrKPp-QHFrH-368" target="hbZG4sB_QH7EyhRolY79-108" edge="1">
          <mxGeometry width="50" height="50" relative="1" as="geometry">
            <mxPoint x="1027" y="-643" as="sourcePoint" />
            <mxPoint x="244" y="-637" as="targetPoint" />
          </mxGeometry>
        </mxCell>
        <mxCell id="hbZG4sB_QH7EyhRolY79-116" style="edgeStyle=orthogonalEdgeStyle;rounded=0;orthogonalLoop=1;jettySize=auto;html=1;exitX=1;exitY=0.5;exitDx=0;exitDy=0;entryX=0.386;entryY=0.072;entryDx=0;entryDy=0;entryPerimeter=0;" parent="1" source="rQkRtYJSGVrKPp-QHFrH-422" target="rQkRtYJSGVrKPp-QHFrH-402" edge="1">
          <mxGeometry relative="1" as="geometry">
            <Array as="points">
              <mxPoint x="-1197" y="-720" />
            </Array>
          </mxGeometry>
        </mxCell>
        <mxCell id="hbZG4sB_QH7EyhRolY79-122" value="USE_GCARD" style="rhombus;whiteSpace=wrap;html=1;fillColor=#fff2cc;strokeColor=#d6b656;gradientColor=#ffd966;fontSize=18;fontFamily=gadugi;fontStyle=1" parent="1" vertex="1">
          <mxGeometry x="-1602" y="502" width="140" height="160" as="geometry" />
        </mxCell>
        <mxCell id="hbZG4sB_QH7EyhRolY79-123" value="" style="endArrow=none;html=1;rounded=0;exitX=0.75;exitY=1;exitDx=0;exitDy=0;entryX=0.5;entryY=0;entryDx=0;entryDy=0;" parent="1" source="rQkRtYJSGVrKPp-QHFrH-402" target="hbZG4sB_QH7EyhRolY79-122" edge="1">
          <mxGeometry width="50" height="50" relative="1" as="geometry">
            <mxPoint x="-750" y="-373" as="sourcePoint" />
            <mxPoint x="-700" y="-423" as="targetPoint" />
          </mxGeometry>
        </mxCell>
        <mxCell id="hbZG4sB_QH7EyhRolY79-125" value="" style="endArrow=none;html=1;rounded=0;exitX=0.5;exitY=1;exitDx=0;exitDy=0;entryX=0;entryY=0.5;entryDx=0;entryDy=0;" parent="1" source="hbZG4sB_QH7EyhRolY79-122" target="rQkRtYJSGVrKPp-QHFrH-341" edge="1">
          <mxGeometry width="50" height="50" relative="1" as="geometry">
            <mxPoint x="-750" y="-373" as="sourcePoint" />
            <mxPoint x="-1008" y="77" as="targetPoint" />
          </mxGeometry>
        </mxCell>
        <mxCell id="hbZG4sB_QH7EyhRolY79-128" value="ORDERS_THROUGH_GCARD" style="rhombus;whiteSpace=wrap;html=1;fillColor=#fff2cc;strokeColor=#d6b656;gradientColor=#ffd966;fontStyle=1;fontSize=18;textShadow=0;fontFamily=gadugi;" parent="1" vertex="1">
          <mxGeometry x="-316" y="580" width="305" height="288.11" as="geometry" />
        </mxCell>
        <mxCell id="hbZG4sB_QH7EyhRolY79-129" value="" style="endArrow=none;html=1;rounded=0;exitX=1;exitY=0.5;exitDx=0;exitDy=0;entryX=0.5;entryY=1;entryDx=0;entryDy=0;" parent="1" source="rQkRtYJSGVrKPp-QHFrH-341" target="hbZG4sB_QH7EyhRolY79-128" edge="1">
          <mxGeometry width="50" height="50" relative="1" as="geometry">
            <mxPoint x="-845" y="130.67000000000002" as="sourcePoint" />
            <mxPoint x="-795" y="80.67000000000002" as="targetPoint" />
          </mxGeometry>
        </mxCell>
        <mxCell id="hbZG4sB_QH7EyhRolY79-133" style="edgeStyle=orthogonalEdgeStyle;rounded=0;orthogonalLoop=1;jettySize=auto;html=1;exitX=0;exitY=1;exitDx=0;exitDy=0;entryX=0.882;entryY=0.119;entryDx=0;entryDy=0;entryPerimeter=0;" parent="1" source="rQkRtYJSGVrKPp-QHFrH-241" target="rQkRtYJSGVrKPp-QHFrH-236" edge="1">
          <mxGeometry relative="1" as="geometry" />
        </mxCell>
        <mxCell id="hbZG4sB_QH7EyhRolY79-134" value="IS_ORDERED" style="rhombus;whiteSpace=wrap;html=1;fillColor=#fff2cc;strokeColor=#d6b656;gradientColor=#ffd966;fontStyle=1;fontSize=17;textShadow=0;" parent="1" vertex="1">
          <mxGeometry x="446" y="265.86000000000007" width="140" height="160" as="geometry" />
        </mxCell>
        <mxCell id="hbZG4sB_QH7EyhRolY79-135" value="GET_AUDITED" style="rhombus;whiteSpace=wrap;html=1;fillColor=#fff2cc;strokeColor=#d6b656;gradientColor=#ffd966;fontStyle=1;fontSize=18;textShadow=0;fontFamily=gadugi;" parent="1" vertex="1">
          <mxGeometry x="1245" y="-715.03" width="167" height="197.03" as="geometry" />
        </mxCell>
        <mxCell id="hbZG4sB_QH7EyhRolY79-136" value="" style="endArrow=none;html=1;rounded=0;entryX=0;entryY=0.5;entryDx=0;entryDy=0;exitX=1;exitY=1;exitDx=0;exitDy=0;" parent="1" source="rQkRtYJSGVrKPp-QHFrH-180" target="hbZG4sB_QH7EyhRolY79-134" edge="1">
          <mxGeometry width="50" height="50" relative="1" as="geometry">
            <mxPoint x="-339" y="-423.14" as="sourcePoint" />
            <mxPoint x="-289" y="-473.14" as="targetPoint" />
          </mxGeometry>
        </mxCell>
        <mxCell id="hbZG4sB_QH7EyhRolY79-137" value="" style="endArrow=none;html=1;rounded=0;entryX=0;entryY=1;entryDx=0;entryDy=0;exitX=1;exitY=0.5;exitDx=0;exitDy=0;" parent="1" source="hbZG4sB_QH7EyhRolY79-134" target="rQkRtYJSGVrKPp-QHFrH-236" edge="1">
          <mxGeometry width="50" height="50" relative="1" as="geometry">
            <mxPoint x="-315" y="-208" as="sourcePoint" />
            <mxPoint x="-265" y="-258" as="targetPoint" />
          </mxGeometry>
        </mxCell>
        <mxCell id="hbZG4sB_QH7EyhRolY79-139" value="" style="endArrow=none;html=1;rounded=0;entryX=0.5;entryY=1;entryDx=0;entryDy=0;exitX=0.5;exitY=0;exitDx=0;exitDy=0;" parent="1" source="hbZG4sB_QH7EyhRolY79-135" target="rQkRtYJSGVrKPp-QHFrH-368" edge="1">
          <mxGeometry width="50" height="50" relative="1" as="geometry">
            <mxPoint x="-315" y="-208" as="sourcePoint" />
            <mxPoint x="-265" y="-258" as="targetPoint" />
          </mxGeometry>
        </mxCell>
        <mxCell id="hbZG4sB_QH7EyhRolY79-141" value="" style="endArrow=none;html=1;rounded=0;entryX=0.5;entryY=1;entryDx=0;entryDy=0;exitX=1;exitY=1;exitDx=0;exitDy=0;" parent="1" source="rQkRtYJSGVrKPp-QHFrH-236" target="hbZG4sB_QH7EyhRolY79-135" edge="1">
          <mxGeometry width="50" height="50" relative="1" as="geometry">
            <mxPoint x="-315" y="-208" as="sourcePoint" />
            <mxPoint x="-265" y="-258" as="targetPoint" />
          </mxGeometry>
        </mxCell>
        <mxCell id="hbZG4sB_QH7EyhRolY79-142" value="HAS_CATEGORY" style="rhombus;whiteSpace=wrap;html=1;fillColor=#fff2cc;strokeColor=#d6b656;gradientColor=#ffd966;fontStyle=1;fontSize=18;textShadow=0;fontFamily=gadugi;" parent="1" vertex="1">
          <mxGeometry x="983" y="-39" width="170" height="199" as="geometry" />
        </mxCell>
        <mxCell id="hbZG4sB_QH7EyhRolY79-144" value="" style="endArrow=none;html=1;rounded=0;entryX=1;entryY=0.5;entryDx=0;entryDy=0;exitX=0;exitY=1;exitDx=0;exitDy=0;" parent="1" source="rQkRtYJSGVrKPp-QHFrH-318" target="hbZG4sB_QH7EyhRolY79-142" edge="1">
          <mxGeometry width="50" height="50" relative="1" as="geometry">
            <mxPoint x="-806" y="688" as="sourcePoint" />
            <mxPoint x="-756" y="638" as="targetPoint" />
          </mxGeometry>
        </mxCell>
        <mxCell id="hbZG4sB_QH7EyhRolY79-145" value="" style="endArrow=none;html=1;rounded=0;entryX=0;entryY=0.5;entryDx=0;entryDy=0;exitX=0.5;exitY=1;exitDx=0;exitDy=0;" parent="1" source="rQkRtYJSGVrKPp-QHFrH-236" target="hbZG4sB_QH7EyhRolY79-142" edge="1">
          <mxGeometry width="50" height="50" relative="1" as="geometry">
            <mxPoint x="-806" y="688" as="sourcePoint" />
            <mxPoint x="-756" y="638" as="targetPoint" />
          </mxGeometry>
        </mxCell>
        <mxCell id="hbZG4sB_QH7EyhRolY79-146" value="" style="endArrow=none;html=1;rounded=0;entryX=0.5;entryY=1;entryDx=0;entryDy=0;exitX=0;exitY=1;exitDx=0;exitDy=0;" parent="1" source="rQkRtYJSGVrKPp-QHFrH-180" target="hbZG4sB_QH7EyhRolY79-56" edge="1">
          <mxGeometry width="50" height="50" relative="1" as="geometry">
            <mxPoint x="-806" y="137" as="sourcePoint" />
            <mxPoint x="-756" y="87" as="targetPoint" />
          </mxGeometry>
        </mxCell>
        <mxCell id="hbZG4sB_QH7EyhRolY79-149" value="PAY_WITH" style="rhombus;whiteSpace=wrap;html=1;fillColor=#fff2cc;strokeColor=#d6b656;gradientColor=#ffd966;fontSize=18;fontFamily=gadugi;fontStyle=1" parent="1" vertex="1">
          <mxGeometry x="-1321" y="148" width="140" height="160" as="geometry" />
        </mxCell>
        <mxCell id="hbZG4sB_QH7EyhRolY79-150" value="NEED_PAYMENT" style="rhombus;whiteSpace=wrap;html=1;fillColor=#fff2cc;strokeColor=#d6b656;gradientColor=#ffd966;fontSize=18;fontFamily=gadugi;fontStyle=1" parent="1" vertex="1">
          <mxGeometry x="-401" y="354" width="181" height="201" as="geometry" />
        </mxCell>
        <mxCell id="hbZG4sB_QH7EyhRolY79-151" value="" style="endArrow=none;html=1;rounded=0;entryX=0;entryY=0.5;entryDx=0;entryDy=0;exitX=1;exitY=1;exitDx=0;exitDy=0;" parent="1" source="rQkRtYJSGVrKPp-QHFrH-196" target="hbZG4sB_QH7EyhRolY79-150" edge="1">
          <mxGeometry width="50" height="50" relative="1" as="geometry">
            <mxPoint x="-779" y="-25.069999999999993" as="sourcePoint" />
            <mxPoint x="-395" y="369.4300000000009" as="targetPoint" />
          </mxGeometry>
        </mxCell>
        <mxCell id="hbZG4sB_QH7EyhRolY79-152" value="" style="endArrow=none;html=1;rounded=0;entryX=1;entryY=0.5;entryDx=0;entryDy=0;exitX=0;exitY=1;exitDx=0;exitDy=0;" parent="1" source="rQkRtYJSGVrKPp-QHFrH-180" target="hbZG4sB_QH7EyhRolY79-150" edge="1">
          <mxGeometry width="50" height="50" relative="1" as="geometry">
            <mxPoint x="-806" y="137" as="sourcePoint" />
            <mxPoint x="-756" y="87" as="targetPoint" />
          </mxGeometry>
        </mxCell>
        <mxCell id="hbZG4sB_QH7EyhRolY79-153" value="" style="endArrow=none;html=1;rounded=0;entryX=0.5;entryY=1;entryDx=0;entryDy=0;exitX=0;exitY=1;exitDx=0;exitDy=0;" parent="1" source="rQkRtYJSGVrKPp-QHFrH-196" target="hbZG4sB_QH7EyhRolY79-149" edge="1">
          <mxGeometry width="50" height="50" relative="1" as="geometry">
            <mxPoint x="-1073" y="-153" as="sourcePoint" />
            <mxPoint x="-1269" y="59" as="targetPoint" />
          </mxGeometry>
        </mxCell>
        <mxCell id="hbZG4sB_QH7EyhRolY79-154" value="" style="endArrow=none;html=1;rounded=0;entryX=0.5;entryY=0;entryDx=0;entryDy=0;exitX=1;exitY=1;exitDx=0;exitDy=0;" parent="1" source="rQkRtYJSGVrKPp-QHFrH-402" target="hbZG4sB_QH7EyhRolY79-149" edge="1">
          <mxGeometry width="50" height="50" relative="1" as="geometry">
            <mxPoint x="-1080" y="-448" as="sourcePoint" />
            <mxPoint x="-756" y="87" as="targetPoint" />
          </mxGeometry>
        </mxCell>
        <mxCell id="hbZG4sB_QH7EyhRolY79-164" value="&lt;font style=&quot;font-size: 18px;&quot;&gt;&lt;b&gt;IS_A_RIDER&lt;/b&gt;&lt;/font&gt;" style="rhombus;whiteSpace=wrap;html=1;fillColor=#fff2cc;strokeColor=#d6b656;gradientColor=#ffd966;" parent="1" vertex="1">
          <mxGeometry x="217" y="-1251" width="140" height="160" as="geometry" />
        </mxCell>
        <mxCell id="hbZG4sB_QH7EyhRolY79-165" value="" style="endArrow=none;html=1;rounded=0;exitX=0.5;exitY=0;exitDx=0;exitDy=0;entryX=0.75;entryY=1;entryDx=0;entryDy=0;" parent="1" source="hbZG4sB_QH7EyhRolY79-164" target="rQkRtYJSGVrKPp-QHFrH-107" edge="1">
          <mxGeometry width="50" height="50" relative="1" as="geometry">
            <mxPoint x="-239" y="-289" as="sourcePoint" />
            <mxPoint x="185" y="-1521" as="targetPoint" />
          </mxGeometry>
        </mxCell>
        <mxCell id="hbZG4sB_QH7EyhRolY79-166" value="" style="endArrow=none;html=1;rounded=0;exitX=0;exitY=0.25;exitDx=0;exitDy=0;entryX=0.5;entryY=1;entryDx=0;entryDy=0;" parent="1" source="rQkRtYJSGVrKPp-QHFrH-275" target="hbZG4sB_QH7EyhRolY79-164" edge="1">
          <mxGeometry width="50" height="50" relative="1" as="geometry">
            <mxPoint x="-239" y="-289" as="sourcePoint" />
            <mxPoint x="-189" y="-339" as="targetPoint" />
          </mxGeometry>
        </mxCell>
        <mxCell id="hbZG4sB_QH7EyhRolY79-167" value="HAS_PREFERRED_AREA" style="rhombus;whiteSpace=wrap;html=1;fillColor=#fff2cc;strokeColor=#d6b656;gradientColor=#ffd966;fontStyle=1;fontSize=18;fontFamily=gadugi;align=center;" parent="1" vertex="1">
          <mxGeometry x="55" y="-1034" width="224" height="182" as="geometry" />
        </mxCell>
        <mxCell id="hbZG4sB_QH7EyhRolY79-169" value="" style="endArrow=none;html=1;rounded=0;entryX=0;entryY=0.5;entryDx=0;entryDy=0;exitX=0.93;exitY=0.973;exitDx=0;exitDy=0;exitPerimeter=0;" parent="1" source="rQkRtYJSGVrKPp-QHFrH-306" target="hbZG4sB_QH7EyhRolY79-167" edge="1">
          <mxGeometry width="50" height="50" relative="1" as="geometry">
            <mxPoint x="5" y="-1083" as="sourcePoint" />
            <mxPoint x="-189" y="-339" as="targetPoint" />
          </mxGeometry>
        </mxCell>
        <mxCell id="hbZG4sB_QH7EyhRolY79-170" value="" style="endArrow=none;html=1;rounded=0;exitX=0;exitY=0.75;exitDx=0;exitDy=0;entryX=1;entryY=0.5;entryDx=0;entryDy=0;" parent="1" source="rQkRtYJSGVrKPp-QHFrH-275" target="hbZG4sB_QH7EyhRolY79-167" edge="1">
          <mxGeometry width="50" height="50" relative="1" as="geometry">
            <mxPoint x="-239" y="-289" as="sourcePoint" />
            <mxPoint x="118" y="-500" as="targetPoint" />
          </mxGeometry>
        </mxCell>
        <mxCell id="hbZG4sB_QH7EyhRolY79-171" value="DELIVERS" style="rhombus;whiteSpace=wrap;html=1;fillColor=#fff2cc;strokeColor=#d6b656;gradientColor=#ffd966;fontStyle=1;fontSize=18;fontFamily=gadugi;" parent="1" vertex="1">
          <mxGeometry x="296.5" y="-639" width="145" height="176" as="geometry" />
        </mxCell>
        <mxCell id="hbZG4sB_QH7EyhRolY79-175" style="edgeStyle=orthogonalEdgeStyle;rounded=0;orthogonalLoop=1;jettySize=auto;html=1;exitX=0.752;exitY=0.933;exitDx=0;exitDy=0;entryX=0.112;entryY=0.149;entryDx=0;entryDy=0;entryPerimeter=0;exitPerimeter=0;" parent="1" source="rQkRtYJSGVrKPp-QHFrH-333" target="rQkRtYJSGVrKPp-QHFrH-324" edge="1">
          <mxGeometry relative="1" as="geometry" />
        </mxCell>
        <mxCell id="hbZG4sB_QH7EyhRolY79-177" style="edgeStyle=orthogonalEdgeStyle;rounded=0;orthogonalLoop=1;jettySize=auto;html=1;exitX=1;exitY=0.5;exitDx=0;exitDy=0;entryX=0.167;entryY=0.149;entryDx=0;entryDy=0;entryPerimeter=0;" parent="1" source="rQkRtYJSGVrKPp-QHFrH-340" target="rQkRtYJSGVrKPp-QHFrH-324" edge="1">
          <mxGeometry relative="1" as="geometry" />
        </mxCell>
        <mxCell id="hbZG4sB_QH7EyhRolY79-183" value="" style="endArrow=none;html=1;rounded=0;exitX=0.5;exitY=1;exitDx=0;exitDy=0;entryX=1;entryY=1;entryDx=0;entryDy=0;" parent="1" source="hbZG4sB_QH7EyhRolY79-171" target="rQkRtYJSGVrKPp-QHFrH-324" edge="1">
          <mxGeometry width="50" height="50" relative="1" as="geometry">
            <mxPoint x="-239" y="-510" as="sourcePoint" />
            <mxPoint x="-189" y="-560" as="targetPoint" />
          </mxGeometry>
        </mxCell>
        <mxCell id="hbZG4sB_QH7EyhRolY79-184" value="" style="endArrow=none;html=1;rounded=0;exitX=0.5;exitY=1;exitDx=0;exitDy=0;entryX=0.5;entryY=0;entryDx=0;entryDy=0;" parent="1" source="rQkRtYJSGVrKPp-QHFrH-275" target="hbZG4sB_QH7EyhRolY79-171" edge="1">
          <mxGeometry width="50" height="50" relative="1" as="geometry">
            <mxPoint x="-239" y="-510" as="sourcePoint" />
            <mxPoint x="-189" y="-560" as="targetPoint" />
          </mxGeometry>
        </mxCell>
        <mxCell id="hbZG4sB_QH7EyhRolY79-185" value="GETS_DELIVERED" style="rhombus;whiteSpace=wrap;html=1;fillColor=#fff2cc;strokeColor=#d6b656;gradientColor=#ffd966;fontStyle=1;fontFamily=gadugi;fontSize=18;" parent="1" vertex="1">
          <mxGeometry x="-341" y="-154" width="209" height="190" as="geometry" />
        </mxCell>
        <mxCell id="hbZG4sB_QH7EyhRolY79-186" value="" style="endArrow=none;html=1;rounded=0;exitX=0.5;exitY=0;exitDx=0;exitDy=0;entryX=0.5;entryY=1;entryDx=0;entryDy=0;" parent="1" source="hbZG4sB_QH7EyhRolY79-185" target="rQkRtYJSGVrKPp-QHFrH-324" edge="1">
          <mxGeometry width="50" height="50" relative="1" as="geometry">
            <mxPoint x="-239" y="-510" as="sourcePoint" />
            <mxPoint x="-366" y="89" as="targetPoint" />
            <Array as="points" />
          </mxGeometry>
        </mxCell>
        <mxCell id="hbZG4sB_QH7EyhRolY79-187" value="" style="endArrow=none;html=1;rounded=0;exitX=0;exitY=0.75;exitDx=0;exitDy=0;entryX=0.5;entryY=1;entryDx=0;entryDy=0;" parent="1" source="rQkRtYJSGVrKPp-QHFrH-180" target="hbZG4sB_QH7EyhRolY79-185" edge="1">
          <mxGeometry width="50" height="50" relative="1" as="geometry">
            <mxPoint x="-239" y="-510" as="sourcePoint" />
            <mxPoint x="-189" y="-560" as="targetPoint" />
          </mxGeometry>
        </mxCell>
        <mxCell id="hbZG4sB_QH7EyhRolY79-192" value="IS_A_CART_ITEM" style="rhombus;whiteSpace=wrap;html=1;fillColor=#fff2cc;strokeColor=#d6b656;gradientColor=#ffd966;fontStyle=1;fontSize=18;textShadow=0;" parent="1" vertex="1">
          <mxGeometry x="710" y="217.75" width="190" height="171.25" as="geometry" />
        </mxCell>
        <mxCell id="hbZG4sB_QH7EyhRolY79-193" value="" style="endArrow=none;html=1;rounded=0;exitX=0.5;exitY=0;exitDx=0;exitDy=0;" parent="1" source="hbZG4sB_QH7EyhRolY79-192" edge="1">
          <mxGeometry width="50" height="50" relative="1" as="geometry">
            <mxPoint x="-239" y="267" as="sourcePoint" />
            <mxPoint x="822" y="-132" as="targetPoint" />
          </mxGeometry>
        </mxCell>
        <mxCell id="hbZG4sB_QH7EyhRolY79-194" value="" style="endArrow=none;html=1;rounded=0;exitX=0;exitY=0;exitDx=0;exitDy=0;entryX=0.5;entryY=1;entryDx=0;entryDy=0;" parent="1" source="rQkRtYJSGVrKPp-QHFrH-122" target="hbZG4sB_QH7EyhRolY79-192" edge="1">
          <mxGeometry width="50" height="50" relative="1" as="geometry">
            <mxPoint x="-239" y="267" as="sourcePoint" />
            <mxPoint x="-189" y="217" as="targetPoint" />
          </mxGeometry>
        </mxCell>
        <mxCell id="hbZG4sB_QH7EyhRolY79-195" value="HAS" style="rhombus;whiteSpace=wrap;html=1;fillColor=#fff2cc;strokeColor=#d6b656;gradientColor=#ffd966;fontStyle=1;fontSize=18;textShadow=0;fontFamily=gadugi;" parent="1" vertex="1">
          <mxGeometry x="909" y="674.4200000000001" width="140" height="160" as="geometry" />
        </mxCell>
        <mxCell id="hbZG4sB_QH7EyhRolY79-196" value="" style="endArrow=none;html=1;rounded=0;exitX=0.5;exitY=0;exitDx=0;exitDy=0;entryX=0.5;entryY=1;entryDx=0;entryDy=0;" parent="1" source="hbZG4sB_QH7EyhRolY79-195" target="rQkRtYJSGVrKPp-QHFrH-122" edge="1">
          <mxGeometry width="50" height="50" relative="1" as="geometry">
            <mxPoint x="-239" y="267" as="sourcePoint" />
            <mxPoint x="-189" y="217" as="targetPoint" />
          </mxGeometry>
        </mxCell>
        <mxCell id="hbZG4sB_QH7EyhRolY79-197" value="" style="endArrow=none;html=1;rounded=0;exitX=0;exitY=1;exitDx=0;exitDy=0;entryX=0.5;entryY=1;entryDx=0;entryDy=0;" parent="1" source="rQkRtYJSGVrKPp-QHFrH-219" target="hbZG4sB_QH7EyhRolY79-195" edge="1">
          <mxGeometry width="50" height="50" relative="1" as="geometry">
            <mxPoint x="-299.5" y="205.42000000000002" as="sourcePoint" />
            <mxPoint x="958.5" y="801.419999999999" as="targetPoint" />
          </mxGeometry>
        </mxCell>
        <mxCell id="hbZG4sB_QH7EyhRolY79-201" value="GET_FIRST_DISCOUNT" style="rhombus;whiteSpace=wrap;html=1;fillColor=#fff2cc;strokeColor=#d6b656;gradientColor=#ffd966;fontStyle=1;fontSize=18;textShadow=0;fontFamily=gadugi;" parent="1" vertex="1">
          <mxGeometry x="-27" y="451.29999999999995" width="224" height="241.45" as="geometry" />
        </mxCell>
        <mxCell id="hbZG4sB_QH7EyhRolY79-202" value="" style="endArrow=none;html=1;rounded=0;exitX=0.5;exitY=0;exitDx=0;exitDy=0;entryX=0.75;entryY=1;entryDx=0;entryDy=0;" parent="1" source="hbZG4sB_QH7EyhRolY79-201" target="rQkRtYJSGVrKPp-QHFrH-180" edge="1">
          <mxGeometry width="50" height="50" relative="1" as="geometry">
            <mxPoint x="-239" y="267" as="sourcePoint" />
            <mxPoint x="-189" y="217" as="targetPoint" />
          </mxGeometry>
        </mxCell>
        <mxCell id="hbZG4sB_QH7EyhRolY79-203" value="" style="endArrow=none;html=1;rounded=0;exitX=0;exitY=1;exitDx=0;exitDy=0;entryX=0.5;entryY=1;entryDx=0;entryDy=0;" parent="1" source="rQkRtYJSGVrKPp-QHFrH-308" target="hbZG4sB_QH7EyhRolY79-201" edge="1">
          <mxGeometry width="50" height="50" relative="1" as="geometry">
            <mxPoint x="303" y="1030" as="sourcePoint" />
            <mxPoint x="-189" y="217" as="targetPoint" />
          </mxGeometry>
        </mxCell>
        <mxCell id="hbZG4sB_QH7EyhRolY79-204" value="" style="endArrow=none;html=1;rounded=0;exitX=0.5;exitY=0;exitDx=0;exitDy=0;entryX=1;entryY=1;entryDx=0;entryDy=0;" parent="1" source="hbZG4sB_QH7EyhRolY79-56" target="rQkRtYJSGVrKPp-QHFrH-78" edge="1">
          <mxGeometry width="50" height="50" relative="1" as="geometry">
            <mxPoint x="-479" y="-677" as="sourcePoint" />
            <mxPoint x="-429" y="-727" as="targetPoint" />
          </mxGeometry>
        </mxCell>
        <mxCell id="hbZG4sB_QH7EyhRolY79-205" value="" style="endArrow=none;html=1;rounded=0;exitX=0.5;exitY=0;exitDx=0;exitDy=0;entryX=0.5;entryY=1;entryDx=0;entryDy=0;" parent="1" source="hbZG4sB_QH7EyhRolY79-48" target="rQkRtYJSGVrKPp-QHFrH-78" edge="1">
          <mxGeometry width="50" height="50" relative="1" as="geometry">
            <mxPoint x="-557" y="-1061" as="sourcePoint" />
            <mxPoint x="-507" y="-1111" as="targetPoint" />
          </mxGeometry>
        </mxCell>
        <mxCell id="hbZG4sB_QH7EyhRolY79-206" value="" style="endArrow=none;html=1;rounded=0;exitX=0;exitY=0.5;exitDx=0;exitDy=0;entryX=0.5;entryY=1;entryDx=0;entryDy=0;" parent="1" source="hbZG4sB_QH7EyhRolY79-85" target="rQkRtYJSGVrKPp-QHFrH-148" edge="1">
          <mxGeometry width="50" height="50" relative="1" as="geometry">
            <mxPoint x="-557" y="-1061" as="sourcePoint" />
            <mxPoint x="-507" y="-1111" as="targetPoint" />
          </mxGeometry>
        </mxCell>
        <mxCell id="hbZG4sB_QH7EyhRolY79-207" value="" style="endArrow=none;html=1;rounded=0;exitX=0.5;exitY=0;exitDx=0;exitDy=0;entryX=0.5;entryY=1;entryDx=0;entryDy=0;" parent="1" source="hbZG4sB_QH7EyhRolY79-108" target="hbZG4sB_QH7EyhRolY79-16" edge="1">
          <mxGeometry width="50" height="50" relative="1" as="geometry">
            <mxPoint x="106" y="-1061" as="sourcePoint" />
            <mxPoint x="156" y="-1111" as="targetPoint" />
          </mxGeometry>
        </mxCell>
        <mxCell id="hbZG4sB_QH7EyhRolY79-212" value="" style="endArrow=none;html=1;rounded=0;exitX=0;exitY=0.5;exitDx=0;exitDy=0;entryX=1;entryY=0.5;entryDx=0;entryDy=0;" parent="1" source="hbZG4sB_QH7EyhRolY79-16" target="hbZG4sB_QH7EyhRolY79-33" edge="1">
          <mxGeometry width="50" height="50" relative="1" as="geometry">
            <mxPoint x="106" y="-699" as="sourcePoint" />
            <mxPoint x="156" y="-749" as="targetPoint" />
          </mxGeometry>
        </mxCell>
        <mxCell id="hbZG4sB_QH7EyhRolY79-213" value="" style="endArrow=none;html=1;rounded=0;exitX=0;exitY=0.5;exitDx=0;exitDy=0;entryX=1;entryY=0.5;entryDx=0;entryDy=0;" parent="1" source="hbZG4sB_QH7EyhRolY79-33" target="rQkRtYJSGVrKPp-QHFrH-107" edge="1">
          <mxGeometry width="50" height="50" relative="1" as="geometry">
            <mxPoint x="106" y="-699" as="sourcePoint" />
            <mxPoint x="156" y="-749" as="targetPoint" />
          </mxGeometry>
        </mxCell>
        <mxCell id="hbZG4sB_QH7EyhRolY79-214" value="" style="endArrow=none;html=1;rounded=0;exitX=1;exitY=0.5;exitDx=0;exitDy=0;entryX=0;entryY=0.5;entryDx=0;entryDy=0;" parent="1" source="rQkRtYJSGVrKPp-QHFrH-106" target="rQkRtYJSGVrKPp-QHFrH-107" edge="1">
          <mxGeometry width="50" height="50" relative="1" as="geometry">
            <mxPoint x="-272" y="-1537" as="sourcePoint" />
            <mxPoint x="-222" y="-1587" as="targetPoint" />
          </mxGeometry>
        </mxCell>
        <mxCell id="hbZG4sB_QH7EyhRolY79-215" value="" style="endArrow=none;html=1;rounded=0;exitX=1;exitY=0.5;exitDx=0;exitDy=0;entryX=0;entryY=0.5;entryDx=0;entryDy=0;" parent="1" source="rQkRtYJSGVrKPp-QHFrH-78" target="rQkRtYJSGVrKPp-QHFrH-106" edge="1">
          <mxGeometry width="50" height="50" relative="1" as="geometry">
            <mxPoint x="106" y="-699" as="sourcePoint" />
            <mxPoint x="156" y="-749" as="targetPoint" />
          </mxGeometry>
        </mxCell>
        <mxCell id="17iAaxUVX2gmBeJVTnpa-1" value="Composite Attribute" style="ellipse;whiteSpace=wrap;html=1;fontStyle=1;fillColor=#d5e8d4;strokeColor=#82b366;fontSize=20;gradientColor=#97d077;" parent="1" vertex="1">
          <mxGeometry x="1182" y="-2160" width="230" height="90" as="geometry" />
        </mxCell>
        <mxCell id="17iAaxUVX2gmBeJVTnpa-2" value="C_Last_Name" style="ellipse;whiteSpace=wrap;html=1;fontStyle=1;fillColor=#d5e8d4;strokeColor=#82b366;fontSize=20;gradientColor=#97d077;" parent="1" vertex="1">
          <mxGeometry x="-407" y="-1824" width="222" height="56" as="geometry" />
        </mxCell>
        <mxCell id="17iAaxUVX2gmBeJVTnpa-3" value="C_First_Name" style="ellipse;whiteSpace=wrap;html=1;fontStyle=1;fillColor=#d5e8d4;strokeColor=#82b366;fontSize=20;gradientColor=#97d077;" parent="1" vertex="1">
          <mxGeometry x="-653" y="-1828" width="222" height="56" as="geometry" />
        </mxCell>
        <mxCell id="17iAaxUVX2gmBeJVTnpa-4" value="" style="endArrow=none;html=1;rounded=0;exitX=0.5;exitY=1;exitDx=0;exitDy=0;entryX=0.272;entryY=0.009;entryDx=0;entryDy=0;entryPerimeter=0;" parent="1" source="17iAaxUVX2gmBeJVTnpa-3" target="rQkRtYJSGVrKPp-QHFrH-83" edge="1">
          <mxGeometry width="50" height="50" relative="1" as="geometry">
            <mxPoint x="65" y="-2060" as="sourcePoint" />
            <mxPoint x="115" y="-2110" as="targetPoint" />
          </mxGeometry>
        </mxCell>
        <mxCell id="17iAaxUVX2gmBeJVTnpa-5" value="" style="endArrow=none;html=1;rounded=0;exitX=0.5;exitY=1;exitDx=0;exitDy=0;entryX=0.728;entryY=0.058;entryDx=0;entryDy=0;entryPerimeter=0;" parent="1" source="17iAaxUVX2gmBeJVTnpa-2" target="rQkRtYJSGVrKPp-QHFrH-83" edge="1">
          <mxGeometry width="50" height="50" relative="1" as="geometry">
            <mxPoint x="65" y="-2060" as="sourcePoint" />
            <mxPoint x="115" y="-2110" as="targetPoint" />
          </mxGeometry>
        </mxCell>
        <mxCell id="a3ifx7APmaN0XEJsPipP-1" value="A_First_Name" style="ellipse;whiteSpace=wrap;html=1;fontStyle=1;fillColor=#d5e8d4;strokeColor=#82b366;fontSize=20;gradientColor=#97d077;" parent="1" vertex="1">
          <mxGeometry x="484" y="-1901" width="222" height="56" as="geometry" />
        </mxCell>
        <mxCell id="a3ifx7APmaN0XEJsPipP-2" value="A_Last_Name" style="ellipse;whiteSpace=wrap;html=1;fontStyle=1;fillColor=#d5e8d4;strokeColor=#82b366;fontSize=20;gradientColor=#97d077;" parent="1" vertex="1">
          <mxGeometry x="739" y="-1901" width="222" height="56" as="geometry" />
        </mxCell>
        <mxCell id="a3ifx7APmaN0XEJsPipP-4" value="" style="endArrow=none;html=1;rounded=0;exitX=0;exitY=0;exitDx=0;exitDy=0;entryX=0.5;entryY=1;entryDx=0;entryDy=0;" parent="1" source="hbZG4sB_QH7EyhRolY79-23" target="a3ifx7APmaN0XEJsPipP-1" edge="1">
          <mxGeometry width="50" height="50" relative="1" as="geometry">
            <mxPoint x="16" y="-1870" as="sourcePoint" />
            <mxPoint x="66" y="-1920" as="targetPoint" />
          </mxGeometry>
        </mxCell>
        <mxCell id="a3ifx7APmaN0XEJsPipP-5" value="" style="endArrow=none;html=1;rounded=0;exitX=1;exitY=0;exitDx=0;exitDy=0;entryX=0.5;entryY=1;entryDx=0;entryDy=0;" parent="1" source="hbZG4sB_QH7EyhRolY79-23" target="a3ifx7APmaN0XEJsPipP-2" edge="1">
          <mxGeometry width="50" height="50" relative="1" as="geometry">
            <mxPoint x="16" y="-1870" as="sourcePoint" />
            <mxPoint x="66" y="-1920" as="targetPoint" />
          </mxGeometry>
        </mxCell>
        <mxCell id="1QfKmGjrCGXADm5xoiE_-1" value="R_First_Name" style="ellipse;whiteSpace=wrap;html=1;fontStyle=1;fillColor=#d5e8d4;strokeColor=#82b366;fontSize=20;gradientColor=#97d077;" parent="1" vertex="1">
          <mxGeometry x="465" y="-1258" width="222" height="56" as="geometry" />
        </mxCell>
        <mxCell id="1QfKmGjrCGXADm5xoiE_-3" value="R_Last_Name" style="ellipse;whiteSpace=wrap;html=1;fontStyle=1;fillColor=#d5e8d4;strokeColor=#82b366;fontSize=20;gradientColor=#97d077;" parent="1" vertex="1">
          <mxGeometry x="706" y="-1262.22" width="222" height="56" as="geometry" />
        </mxCell>
        <mxCell id="1QfKmGjrCGXADm5xoiE_-4" value="" style="endArrow=none;html=1;rounded=0;exitX=0;exitY=0;exitDx=0;exitDy=0;entryX=0.5;entryY=1;entryDx=0;entryDy=0;" parent="1" source="rQkRtYJSGVrKPp-QHFrH-282" target="1QfKmGjrCGXADm5xoiE_-1" edge="1">
          <mxGeometry width="50" height="50" relative="1" as="geometry">
            <mxPoint x="306" y="-1503" as="sourcePoint" />
            <mxPoint x="579" y="-1263" as="targetPoint" />
          </mxGeometry>
        </mxCell>
        <mxCell id="1QfKmGjrCGXADm5xoiE_-8" value="" style="endArrow=none;html=1;rounded=0;exitX=1;exitY=0;exitDx=0;exitDy=0;entryX=0.5;entryY=1;entryDx=0;entryDy=0;" parent="1" source="rQkRtYJSGVrKPp-QHFrH-282" target="1QfKmGjrCGXADm5xoiE_-3" edge="1">
          <mxGeometry width="50" height="50" relative="1" as="geometry">
            <mxPoint x="306" y="-1503" as="sourcePoint" />
            <mxPoint x="356" y="-1553" as="targetPoint" />
          </mxGeometry>
        </mxCell>
        <mxCell id="_B5pW3fS5C10glLZcDzk-1" value="" style="endArrow=none;html=1;rounded=0;entryX=0.986;entryY=0.621;entryDx=0;entryDy=0;entryPerimeter=0;" parent="1" target="rQkRtYJSGVrKPp-QHFrH-78" edge="1">
          <mxGeometry width="50" height="50" relative="1" as="geometry">
            <mxPoint x="-421" y="-1550" as="sourcePoint" />
            <mxPoint x="-658" y="-1557" as="targetPoint" />
          </mxGeometry>
        </mxCell>
        <mxCell id="_B5pW3fS5C10glLZcDzk-2" value="N" style="text;html=1;align=center;verticalAlign=middle;resizable=0;points=[];autosize=1;strokeColor=none;fillColor=none;" parent="1" vertex="1">
          <mxGeometry x="-446" y="-1599" width="27" height="26" as="geometry" />
        </mxCell>
        <mxCell id="_B5pW3fS5C10glLZcDzk-3" value="1" style="text;html=1;align=center;verticalAlign=middle;resizable=0;points=[];autosize=1;strokeColor=none;fillColor=none;" parent="1" vertex="1">
          <mxGeometry x="-279" y="-1596" width="25" height="26" as="geometry" />
        </mxCell>
        <mxCell id="1ST7UaZFP5BmZPZZj1dO-1" value="" style="endArrow=none;html=1;rounded=0;" parent="1" target="hbZG4sB_QH7EyhRolY79-16" edge="1">
          <mxGeometry width="50" height="50" relative="1" as="geometry">
            <mxPoint x="575" y="-1546" as="sourcePoint" />
            <mxPoint x="718" y="-1545" as="targetPoint" />
          </mxGeometry>
        </mxCell>
        <mxCell id="1ST7UaZFP5BmZPZZj1dO-2" value="1" style="text;html=1;align=center;verticalAlign=middle;resizable=0;points=[];autosize=1;strokeColor=none;fillColor=none;" parent="1" vertex="1">
          <mxGeometry x="403" y="-1590" width="25" height="26" as="geometry" />
        </mxCell>
        <mxCell id="1ST7UaZFP5BmZPZZj1dO-3" value="N" style="text;html=1;align=center;verticalAlign=middle;resizable=0;points=[];autosize=1;strokeColor=none;fillColor=none;" parent="1" vertex="1">
          <mxGeometry x="592" y="-1595" width="27" height="26" as="geometry" />
        </mxCell>
        <mxCell id="AXG7G0XoIWLB5qLeEY9d-1" value="" style="endArrow=none;html=1;rounded=0;exitX=0;exitY=0;exitDx=0;exitDy=0;entryX=0.579;entryY=0.924;entryDx=0;entryDy=0;entryPerimeter=0;" edge="1" parent="1" source="rQkRtYJSGVrKPp-QHFrH-275" target="hbZG4sB_QH7EyhRolY79-164">
          <mxGeometry width="50" height="50" relative="1" as="geometry">
            <mxPoint x="336" y="-1159" as="sourcePoint" />
            <mxPoint x="386" y="-1209" as="targetPoint" />
          </mxGeometry>
        </mxCell>
        <mxCell id="AXG7G0XoIWLB5qLeEY9d-2" value="1" style="text;html=1;align=center;verticalAlign=middle;resizable=0;points=[];autosize=1;strokeColor=none;fillColor=none;" vertex="1" parent="1">
          <mxGeometry x="281" y="-1307" width="25" height="26" as="geometry" />
        </mxCell>
        <mxCell id="AXG7G0XoIWLB5qLeEY9d-3" value="N" style="text;html=1;align=center;verticalAlign=middle;resizable=0;points=[];autosize=1;strokeColor=none;fillColor=none;" vertex="1" parent="1">
          <mxGeometry x="344" y="-1118" width="27" height="26" as="geometry" />
        </mxCell>
        <mxCell id="AXG7G0XoIWLB5qLeEY9d-4" value="" style="endArrow=none;html=1;rounded=0;exitX=0;exitY=1;exitDx=0;exitDy=0;" edge="1" parent="1" source="rQkRtYJSGVrKPp-QHFrH-275">
          <mxGeometry width="50" height="50" relative="1" as="geometry">
            <mxPoint x="336" y="-1159" as="sourcePoint" />
            <mxPoint x="258" y="-929" as="targetPoint" />
          </mxGeometry>
        </mxCell>
        <mxCell id="AXG7G0XoIWLB5qLeEY9d-5" value="" style="endArrow=none;html=1;rounded=0;exitX=1;exitY=1;exitDx=0;exitDy=0;entryX=0.103;entryY=0.43;entryDx=0;entryDy=0;entryPerimeter=0;" edge="1" parent="1" source="rQkRtYJSGVrKPp-QHFrH-306" target="hbZG4sB_QH7EyhRolY79-167">
          <mxGeometry width="50" height="50" relative="1" as="geometry">
            <mxPoint x="55.000000000000455" y="-1096.2199999999998" as="sourcePoint" />
            <mxPoint x="146" y="-957.08" as="targetPoint" />
          </mxGeometry>
        </mxCell>
        <mxCell id="AXG7G0XoIWLB5qLeEY9d-7" value="N" style="text;html=1;align=center;verticalAlign=middle;resizable=0;points=[];autosize=1;strokeColor=none;fillColor=none;" vertex="1" parent="1">
          <mxGeometry x="93" y="-1011" width="27" height="26" as="geometry" />
        </mxCell>
        <mxCell id="AXG7G0XoIWLB5qLeEY9d-8" value="1" style="text;html=1;align=center;verticalAlign=middle;resizable=0;points=[];autosize=1;strokeColor=none;fillColor=none;" vertex="1" parent="1">
          <mxGeometry x="283" y="-978" width="25" height="26" as="geometry" />
        </mxCell>
        <mxCell id="AXG7G0XoIWLB5qLeEY9d-9" value="1" style="text;html=1;align=center;verticalAlign=middle;resizable=0;points=[];autosize=1;strokeColor=none;fillColor=none;" vertex="1" parent="1">
          <mxGeometry x="-933" y="-979" width="25" height="26" as="geometry" />
        </mxCell>
        <mxCell id="AXG7G0XoIWLB5qLeEY9d-12" value="N" style="text;html=1;align=center;verticalAlign=middle;resizable=0;points=[];autosize=1;strokeColor=none;fillColor=none;" vertex="1" parent="1">
          <mxGeometry x="-905" y="-756" width="27" height="26" as="geometry" />
        </mxCell>
        <mxCell id="AXG7G0XoIWLB5qLeEY9d-13" value="1" style="text;html=1;align=center;verticalAlign=middle;resizable=0;points=[];autosize=1;strokeColor=none;fillColor=none;" vertex="1" parent="1">
          <mxGeometry x="-1237" y="125" width="25" height="26" as="geometry" />
        </mxCell>
        <mxCell id="AXG7G0XoIWLB5qLeEY9d-14" value="1" style="text;html=1;align=center;verticalAlign=middle;resizable=0;points=[];autosize=1;strokeColor=none;fillColor=none;" vertex="1" parent="1">
          <mxGeometry x="-1209" y="280" width="25" height="26" as="geometry" />
        </mxCell>
        <mxCell id="AXG7G0XoIWLB5qLeEY9d-15" value="1" style="text;html=1;align=center;verticalAlign=middle;resizable=0;points=[];autosize=1;strokeColor=none;fillColor=none;" vertex="1" parent="1">
          <mxGeometry x="954" y="-1476" width="25" height="26" as="geometry" />
        </mxCell>
        <mxCell id="AXG7G0XoIWLB5qLeEY9d-16" value="N" style="text;html=1;align=center;verticalAlign=middle;resizable=0;points=[];autosize=1;strokeColor=none;fillColor=none;" vertex="1" parent="1">
          <mxGeometry x="973" y="-1265" width="27" height="26" as="geometry" />
        </mxCell>
        <mxCell id="AXG7G0XoIWLB5qLeEY9d-17" value="1" style="text;html=1;align=center;verticalAlign=middle;resizable=0;points=[];autosize=1;strokeColor=none;fillColor=none;" vertex="1" parent="1">
          <mxGeometry x="392" y="-654" width="25" height="26" as="geometry" />
        </mxCell>
        <mxCell id="AXG7G0XoIWLB5qLeEY9d-18" value="N" style="text;html=1;align=center;verticalAlign=middle;resizable=0;points=[];autosize=1;strokeColor=none;fillColor=none;" vertex="1" parent="1">
          <mxGeometry x="358" y="-454" width="27" height="26" as="geometry" />
        </mxCell>
        <mxCell id="AXG7G0XoIWLB5qLeEY9d-19" value="1" style="text;html=1;align=center;verticalAlign=middle;resizable=0;points=[];autosize=1;strokeColor=none;fillColor=none;" vertex="1" parent="1">
          <mxGeometry x="-215" y="-180" width="25" height="26" as="geometry" />
        </mxCell>
        <mxCell id="AXG7G0XoIWLB5qLeEY9d-20" value="1" style="text;html=1;align=center;verticalAlign=middle;resizable=0;points=[];autosize=1;strokeColor=none;fillColor=none;" vertex="1" parent="1">
          <mxGeometry x="-215" y="11" width="25" height="26" as="geometry" />
        </mxCell>
        <mxCell id="AXG7G0XoIWLB5qLeEY9d-23" value="1" style="text;html=1;align=center;verticalAlign=middle;resizable=0;points=[];autosize=1;strokeColor=none;fillColor=none;" vertex="1" parent="1">
          <mxGeometry x="427" y="305" width="25" height="26" as="geometry" />
        </mxCell>
        <mxCell id="AXG7G0XoIWLB5qLeEY9d-24" value="N" style="text;html=1;align=center;verticalAlign=middle;resizable=0;points=[];autosize=1;strokeColor=none;fillColor=none;" vertex="1" parent="1">
          <mxGeometry x="569" y="278" width="27" height="26" as="geometry" />
        </mxCell>
        <mxCell id="AXG7G0XoIWLB5qLeEY9d-25" value="1" style="text;html=1;align=center;verticalAlign=middle;resizable=0;points=[];autosize=1;strokeColor=none;fillColor=none;" vertex="1" parent="1">
          <mxGeometry x="816" y="193" width="25" height="26" as="geometry" />
        </mxCell>
        <mxCell id="AXG7G0XoIWLB5qLeEY9d-26" value="N" style="text;html=1;align=center;verticalAlign=middle;resizable=0;points=[];autosize=1;strokeColor=none;fillColor=none;" vertex="1" parent="1">
          <mxGeometry x="827" y="374" width="27" height="26" as="geometry" />
        </mxCell>
        <mxCell id="AXG7G0XoIWLB5qLeEY9d-28" value="N" style="text;html=1;align=center;verticalAlign=middle;resizable=0;points=[];autosize=1;strokeColor=none;fillColor=none;" vertex="1" parent="1">
          <mxGeometry x="1002" y="669" width="27" height="26" as="geometry" />
        </mxCell>
        <mxCell id="AXG7G0XoIWLB5qLeEY9d-29" value="1" style="text;html=1;align=center;verticalAlign=middle;resizable=0;points=[];autosize=1;strokeColor=none;fillColor=none;" vertex="1" parent="1">
          <mxGeometry x="87" y="418" width="25" height="26" as="geometry" />
        </mxCell>
        <mxCell id="AXG7G0XoIWLB5qLeEY9d-30" value="1" style="text;html=1;align=center;verticalAlign=middle;resizable=0;points=[];autosize=1;strokeColor=none;fillColor=none;" vertex="1" parent="1">
          <mxGeometry x="112" y="680" width="25" height="26" as="geometry" />
        </mxCell>
        <mxCell id="AXG7G0XoIWLB5qLeEY9d-31" value="1" style="text;html=1;align=center;verticalAlign=middle;resizable=0;points=[];autosize=1;strokeColor=none;fillColor=none;" vertex="1" parent="1">
          <mxGeometry x="-199" y="537" width="25" height="26" as="geometry" />
        </mxCell>
        <mxCell id="AXG7G0XoIWLB5qLeEY9d-32" value="1" style="text;html=1;align=center;verticalAlign=middle;resizable=0;points=[];autosize=1;strokeColor=none;fillColor=none;" vertex="1" parent="1">
          <mxGeometry x="-261" y="819" width="25" height="26" as="geometry" />
        </mxCell>
        <mxCell id="AXG7G0XoIWLB5qLeEY9d-33" value="1" style="text;html=1;align=center;verticalAlign=middle;resizable=0;points=[];autosize=1;strokeColor=none;fillColor=none;" vertex="1" parent="1">
          <mxGeometry x="-221" y="395" width="25" height="26" as="geometry" />
        </mxCell>
        <mxCell id="AXG7G0XoIWLB5qLeEY9d-34" value="1" style="text;html=1;align=center;verticalAlign=middle;resizable=0;points=[];autosize=1;strokeColor=none;fillColor=none;" vertex="1" parent="1">
          <mxGeometry x="-412" y="418" width="25" height="26" as="geometry" />
        </mxCell>
        <mxCell id="AXG7G0XoIWLB5qLeEY9d-36" value="1" style="text;html=1;align=center;verticalAlign=middle;resizable=0;points=[];autosize=1;strokeColor=none;fillColor=none;" vertex="1" parent="1">
          <mxGeometry x="-816" y="-175" width="25" height="26" as="geometry" />
        </mxCell>
        <mxCell id="AXG7G0XoIWLB5qLeEY9d-38" value="Text" style="text;html=1;align=center;verticalAlign=middle;resizable=0;points=[];autosize=1;strokeColor=none;fillColor=none;" vertex="1" parent="1">
          <mxGeometry x="-793" y="1" width="40" height="26" as="geometry" />
        </mxCell>
        <mxCell id="AXG7G0XoIWLB5qLeEY9d-39" value="N" style="text;html=1;align=center;verticalAlign=middle;resizable=0;points=[];autosize=1;strokeColor=none;fillColor=none;" vertex="1" parent="1">
          <mxGeometry x="-797" y="-22" width="27" height="26" as="geometry" />
        </mxCell>
        <mxCell id="AXG7G0XoIWLB5qLeEY9d-40" value="1" style="text;html=1;align=center;verticalAlign=middle;resizable=0;points=[];autosize=1;strokeColor=none;fillColor=none;" vertex="1" parent="1">
          <mxGeometry x="-972" y="-1217" width="25" height="26" as="geometry" />
        </mxCell>
        <mxCell id="AXG7G0XoIWLB5qLeEY9d-41" value="N" style="text;html=1;align=center;verticalAlign=middle;resizable=0;points=[];autosize=1;strokeColor=none;fillColor=none;" vertex="1" parent="1">
          <mxGeometry x="-1124" y="-1212" width="27" height="26" as="geometry" />
        </mxCell>
        <mxCell id="AXG7G0XoIWLB5qLeEY9d-42" value="1" style="text;html=1;align=center;verticalAlign=middle;resizable=0;points=[];autosize=1;strokeColor=none;fillColor=none;" vertex="1" parent="1">
          <mxGeometry x="-1510" y="483" width="25" height="26" as="geometry" />
        </mxCell>
        <mxCell id="AXG7G0XoIWLB5qLeEY9d-43" value="1" style="text;html=1;align=center;verticalAlign=middle;resizable=0;points=[];autosize=1;strokeColor=none;fillColor=none;" vertex="1" parent="1">
          <mxGeometry x="-1487" y="645" width="25" height="26" as="geometry" />
        </mxCell>
        <mxCell id="AXG7G0XoIWLB5qLeEY9d-44" value="1" style="text;html=1;align=center;verticalAlign=middle;resizable=0;points=[];autosize=1;strokeColor=none;fillColor=none;" vertex="1" parent="1">
          <mxGeometry x="1135" y="12" width="25" height="26" as="geometry" />
        </mxCell>
        <mxCell id="AXG7G0XoIWLB5qLeEY9d-45" value="N" style="text;html=1;align=center;verticalAlign=middle;resizable=0;points=[];autosize=1;strokeColor=none;fillColor=none;" vertex="1" parent="1">
          <mxGeometry x="963" y="11" width="27" height="26" as="geometry" />
        </mxCell>
        <mxCell id="AXG7G0XoIWLB5qLeEY9d-46" value="1" style="text;html=1;align=center;verticalAlign=middle;resizable=0;points=[];autosize=1;strokeColor=none;fillColor=none;" vertex="1" parent="1">
          <mxGeometry x="1284" y="-532" width="25" height="26" as="geometry" />
        </mxCell>
        <mxCell id="AXG7G0XoIWLB5qLeEY9d-47" value="N" style="text;html=1;align=center;verticalAlign=middle;resizable=0;points=[];autosize=1;strokeColor=none;fillColor=none;" vertex="1" parent="1">
          <mxGeometry x="1296" y="-745" width="27" height="26" as="geometry" />
        </mxCell>
        <mxCell id="AXG7G0XoIWLB5qLeEY9d-48" value="" style="endArrow=none;html=1;rounded=0;entryX=0.938;entryY=0.03;entryDx=0;entryDy=0;entryPerimeter=0;exitX=0.436;exitY=0.912;exitDx=0;exitDy=0;exitPerimeter=0;" edge="1" parent="1" source="hbZG4sB_QH7EyhRolY79-48" target="rQkRtYJSGVrKPp-QHFrH-402">
          <mxGeometry width="50" height="50" relative="1" as="geometry">
            <mxPoint x="-432" y="-1252" as="sourcePoint" />
            <mxPoint x="-591" y="-1230" as="targetPoint" />
          </mxGeometry>
        </mxCell>
        <mxCell id="AXG7G0XoIWLB5qLeEY9d-49" value="" style="endArrow=none;html=1;rounded=0;exitX=0.396;exitY=0.096;exitDx=0;exitDy=0;exitPerimeter=0;entryX=0.938;entryY=1.043;entryDx=0;entryDy=0;entryPerimeter=0;" edge="1" parent="1" source="hbZG4sB_QH7EyhRolY79-149" target="rQkRtYJSGVrKPp-QHFrH-402">
          <mxGeometry width="50" height="50" relative="1" as="geometry">
            <mxPoint x="-432" y="53" as="sourcePoint" />
            <mxPoint x="-382" y="3" as="targetPoint" />
          </mxGeometry>
        </mxCell>
        <mxCell id="AXG7G0XoIWLB5qLeEY9d-50" value="" style="endArrow=none;html=1;rounded=0;exitX=-0.003;exitY=0.89;exitDx=0;exitDy=0;exitPerimeter=0;entryX=0.549;entryY=0.941;entryDx=0;entryDy=0;entryPerimeter=0;" edge="1" parent="1" source="rQkRtYJSGVrKPp-QHFrH-308" target="hbZG4sB_QH7EyhRolY79-201">
          <mxGeometry width="50" height="50" relative="1" as="geometry">
            <mxPoint x="244" y="462" as="sourcePoint" />
            <mxPoint x="94" y="693" as="targetPoint" />
          </mxGeometry>
        </mxCell>
        <mxCell id="AXG7G0XoIWLB5qLeEY9d-51" value="" style="endArrow=none;html=1;rounded=0;entryX=0.591;entryY=1.031;entryDx=0;entryDy=0;entryPerimeter=0;exitX=0.644;exitY=0.152;exitDx=0;exitDy=0;exitPerimeter=0;" edge="1" parent="1" source="hbZG4sB_QH7EyhRolY79-135" target="rQkRtYJSGVrKPp-QHFrH-368">
          <mxGeometry width="50" height="50" relative="1" as="geometry">
            <mxPoint x="705" y="-585" as="sourcePoint" />
            <mxPoint x="755" y="-635" as="targetPoint" />
          </mxGeometry>
        </mxCell>
        <mxCell id="AXG7G0XoIWLB5qLeEY9d-52" value="" style="endArrow=none;html=1;rounded=0;exitX=0.361;exitY=0.95;exitDx=0;exitDy=0;exitPerimeter=0;" edge="1" parent="1" source="rQkRtYJSGVrKPp-QHFrH-236">
          <mxGeometry width="50" height="50" relative="1" as="geometry">
            <mxPoint x="705" y="223" as="sourcePoint" />
            <mxPoint x="993" y="85" as="targetPoint" />
          </mxGeometry>
        </mxCell>
        <mxCell id="AXG7G0XoIWLB5qLeEY9d-53" value="" style="endArrow=none;html=1;rounded=0;entryX=0.914;entryY=0.55;entryDx=0;entryDy=0;entryPerimeter=0;" edge="1" parent="1" target="hbZG4sB_QH7EyhRolY79-142">
          <mxGeometry width="50" height="50" relative="1" as="geometry">
            <mxPoint x="1211" y="-28" as="sourcePoint" />
            <mxPoint x="1179" y="71" as="targetPoint" />
          </mxGeometry>
        </mxCell>
        <mxCell id="AXG7G0XoIWLB5qLeEY9d-54" value="" style="endArrow=none;html=1;rounded=0;exitX=0;exitY=0.25;exitDx=0;exitDy=0;entryX=0.309;entryY=0.839;entryDx=0;entryDy=0;entryPerimeter=0;" edge="1" parent="1" source="rQkRtYJSGVrKPp-QHFrH-122" target="hbZG4sB_QH7EyhRolY79-192">
          <mxGeometry width="50" height="50" relative="1" as="geometry">
            <mxPoint x="705" y="425" as="sourcePoint" />
            <mxPoint x="755" y="375" as="targetPoint" />
          </mxGeometry>
        </mxCell>
        <mxCell id="AXG7G0XoIWLB5qLeEY9d-55" value="" style="endArrow=none;html=1;rounded=0;entryX=0.25;entryY=1;entryDx=0;entryDy=0;exitX=0.405;exitY=0.084;exitDx=0;exitDy=0;exitPerimeter=0;" edge="1" parent="1" source="hbZG4sB_QH7EyhRolY79-192" target="rQkRtYJSGVrKPp-QHFrH-236">
          <mxGeometry width="50" height="50" relative="1" as="geometry">
            <mxPoint x="793" y="214" as="sourcePoint" />
            <mxPoint x="811" y="-37" as="targetPoint" />
          </mxGeometry>
        </mxCell>
        <mxCell id="AXG7G0XoIWLB5qLeEY9d-56" value="" style="endArrow=none;html=1;rounded=0;exitX=0;exitY=0;exitDx=0;exitDy=0;entryX=0.395;entryY=0.977;entryDx=0;entryDy=0;entryPerimeter=0;" edge="1" parent="1" source="hbZG4sB_QH7EyhRolY79-195" target="rQkRtYJSGVrKPp-QHFrH-122">
          <mxGeometry width="50" height="50" relative="1" as="geometry">
            <mxPoint x="705" y="544" as="sourcePoint" />
            <mxPoint x="755" y="494" as="targetPoint" />
          </mxGeometry>
        </mxCell>
        <mxCell id="AXG7G0XoIWLB5qLeEY9d-57" value="" style="endArrow=none;html=1;rounded=0;exitX=0;exitY=0.75;exitDx=0;exitDy=0;" edge="1" parent="1" source="rQkRtYJSGVrKPp-QHFrH-219">
          <mxGeometry width="50" height="50" relative="1" as="geometry">
            <mxPoint x="705" y="544" as="sourcePoint" />
            <mxPoint x="985" y="826" as="targetPoint" />
          </mxGeometry>
        </mxCell>
        <mxCell id="AXG7G0XoIWLB5qLeEY9d-58" value="1" style="text;html=1;align=center;verticalAlign=middle;resizable=0;points=[];autosize=1;strokeColor=none;fillColor=none;" vertex="1" parent="1">
          <mxGeometry x="1013" y="803" width="25" height="26" as="geometry" />
        </mxCell>
        <mxCell id="AXG7G0XoIWLB5qLeEY9d-59" value="" style="endArrow=none;html=1;rounded=0;exitX=1;exitY=0.75;exitDx=0;exitDy=0;" edge="1" parent="1" source="rQkRtYJSGVrKPp-QHFrH-324">
          <mxGeometry width="50" height="50" relative="1" as="geometry">
            <mxPoint x="705" y="-466" as="sourcePoint" />
            <mxPoint x="369" y="-481" as="targetPoint" />
          </mxGeometry>
        </mxCell>
        <mxCell id="AXG7G0XoIWLB5qLeEY9d-60" value="" style="endArrow=none;html=1;rounded=0;entryX=0.06;entryY=0.434;entryDx=0;entryDy=0;entryPerimeter=0;" edge="1" parent="1" target="hbZG4sB_QH7EyhRolY79-85">
          <mxGeometry width="50" height="50" relative="1" as="geometry">
            <mxPoint x="-1262" y="-1273" as="sourcePoint" />
            <mxPoint x="-220" y="-1122" as="targetPoint" />
          </mxGeometry>
        </mxCell>
        <mxCell id="AXG7G0XoIWLB5qLeEY9d-61" value="" style="endArrow=none;html=1;rounded=0;exitX=0.423;exitY=0.959;exitDx=0;exitDy=0;exitPerimeter=0;entryX=0.429;entryY=0.044;entryDx=0;entryDy=0;entryPerimeter=0;" edge="1" parent="1" source="rQkRtYJSGVrKPp-QHFrH-324" target="hbZG4sB_QH7EyhRolY79-185">
          <mxGeometry width="50" height="50" relative="1" as="geometry">
            <mxPoint x="-270" y="140" as="sourcePoint" />
            <mxPoint x="-260" y="-168" as="targetPoint" />
          </mxGeometry>
        </mxCell>
        <mxCell id="AXG7G0XoIWLB5qLeEY9d-63" value="" style="endArrow=none;html=1;rounded=0;exitX=1;exitY=0.25;exitDx=0;exitDy=0;entryX=0.449;entryY=0.951;entryDx=0;entryDy=0;entryPerimeter=0;" edge="1" parent="1" source="rQkRtYJSGVrKPp-QHFrH-341" target="hbZG4sB_QH7EyhRolY79-128">
          <mxGeometry width="50" height="50" relative="1" as="geometry">
            <mxPoint x="-270" y="544" as="sourcePoint" />
            <mxPoint x="-220" y="494" as="targetPoint" />
          </mxGeometry>
        </mxCell>
        <mxCell id="AXG7G0XoIWLB5qLeEY9d-64" value="" style="endArrow=none;html=1;rounded=0;exitX=1;exitY=0.75;exitDx=0;exitDy=0;entryX=1.16;entryY=1.231;entryDx=0;entryDy=0;entryPerimeter=0;" edge="1" parent="1" source="rQkRtYJSGVrKPp-QHFrH-196" target="AXG7G0XoIWLB5qLeEY9d-34">
          <mxGeometry width="50" height="50" relative="1" as="geometry">
            <mxPoint x="-236" y="544" as="sourcePoint" />
            <mxPoint x="-186" y="494" as="targetPoint" />
          </mxGeometry>
        </mxCell>
        <mxCell id="AXG7G0XoIWLB5qLeEY9d-65" value="" style="endArrow=none;html=1;rounded=0;exitX=1;exitY=0.75;exitDx=0;exitDy=0;entryX=0.083;entryY=0.42;entryDx=0;entryDy=0;entryPerimeter=0;" edge="1" parent="1" source="rQkRtYJSGVrKPp-QHFrH-180" target="hbZG4sB_QH7EyhRolY79-134">
          <mxGeometry width="50" height="50" relative="1" as="geometry">
            <mxPoint x="602" y="162" as="sourcePoint" />
            <mxPoint x="652" y="112" as="targetPoint" />
          </mxGeometry>
        </mxCell>
      </root>
    </mxGraphModel>
  </diagram>
</mxfile>
